solid OpenSCAD_Model
  facet normal -1 0 0
    outer loop
      vertex 0 0 0
      vertex 0 0 12
      vertex 0 8 0
    endloop
  endfacet
  facet normal -1 0 0
    outer loop
      vertex 0 8 0
      vertex 0 0 12
      vertex 0 8 12
    endloop
  endfacet
  facet normal 0 -1 0
    outer loop
      vertex 8.19266 0 4.32778
      vertex 0 0 0
      vertex 60 0 0
    endloop
  endfacet
  facet normal 0 -1 0
    outer loop
      vertex 52.5 0 4.19
      vertex 0 0 12
      vertex 60 0 0
    endloop
  endfacet
  facet normal 0 -1 0
    outer loop
      vertex 8.19266 0 4.32778
      vertex 7.5 0 4.19
      vertex 0 0 0
    endloop
  endfacet
  facet normal 0 -1 0
    outer loop
      vertex 0 0 12
      vertex 0 0 0
      vertex 5.82778 0 5.30734
    endloop
  endfacet
  facet normal 0 -1 0
    outer loop
      vertex 9.17222 0 5.30734
      vertex 8.77986 0 4.72014
      vertex 60 0 0
    endloop
  endfacet
  facet normal 0 -1 0
    outer loop
      vertex 0 0 12
      vertex 5.82778 0 5.30734
      vertex 5.69 0 6
    endloop
  endfacet
  facet normal 0 -1 0
    outer loop
      vertex 0 0 12
      vertex 9.31 0 6
      vertex 60 0 0
    endloop
  endfacet
  facet normal 0 -1 0
    outer loop
      vertex 0 0 12
      vertex 5.69 0 6
      vertex 9.31 0 6
    endloop
  endfacet
  facet normal 0 -1 0
    outer loop
      vertex 8.77986 0 4.72014
      vertex 8.19266 0 4.32778
      vertex 60 0 0
    endloop
  endfacet
  facet normal 0 -1 0
    outer loop
      vertex 50.69 0 6
      vertex 54.31 0 6
      vertex 60 0 12
    endloop
  endfacet
  facet normal 0 -1 0
    outer loop
      vertex 6.80734 0 4.32778
      vertex 0 0 0
      vertex 7.5 0 4.19
    endloop
  endfacet
  facet normal 0 -1 0
    outer loop
      vertex 6.22014 0 4.72014
      vertex 0 0 0
      vertex 6.80734 0 4.32778
    endloop
  endfacet
  facet normal 0 -1 0
    outer loop
      vertex 5.82778 0 5.30734
      vertex 0 0 0
      vertex 6.22014 0 4.72014
    endloop
  endfacet
  facet normal 0 -1 0
    outer loop
      vertex 50.69 0 6
      vertex 0 0 12
      vertex 50.8278 0 5.30734
    endloop
  endfacet
  facet normal 0 -1 0
    outer loop
      vertex 53.1927 0 4.32778
      vertex 52.5 0 4.19
      vertex 60 0 0
    endloop
  endfacet
  facet normal 0 -1 0
    outer loop
      vertex 60 0 12
      vertex 0 0 12
      vertex 50.69 0 6
    endloop
  endfacet
  facet normal 0 -1 0
    outer loop
      vertex 60 0 12
      vertex 54.31 0 6
      vertex 60 0 0
    endloop
  endfacet
  facet normal 0 -1 0
    outer loop
      vertex 54.31 0 6
      vertex 54.1722 0 5.30734
      vertex 60 0 0
    endloop
  endfacet
  facet normal 0 -1 0
    outer loop
      vertex 54.1722 0 5.30734
      vertex 53.7799 0 4.72014
      vertex 60 0 0
    endloop
  endfacet
  facet normal 0 -1 0
    outer loop
      vertex 53.7799 0 4.72014
      vertex 53.1927 0 4.32778
      vertex 60 0 0
    endloop
  endfacet
  facet normal 0 -1 0
    outer loop
      vertex 51.8073 0 4.32778
      vertex 0 0 12
      vertex 52.5 0 4.19
    endloop
  endfacet
  facet normal 0 -1 0
    outer loop
      vertex 51.2201 0 4.72014
      vertex 0 0 12
      vertex 51.8073 0 4.32778
    endloop
  endfacet
  facet normal 0 -1 0
    outer loop
      vertex 50.8278 0 5.30734
      vertex 0 0 12
      vertex 51.2201 0 4.72014
    endloop
  endfacet
  facet normal 0 -1 0
    outer loop
      vertex 9.31 0 6
      vertex 9.17222 0 5.30734
      vertex 60 0 0
    endloop
  endfacet
  facet normal 0 0 -1
    outer loop
      vertex 0 0 0
      vertex 0 8 0
      vertex 60 0 0
    endloop
  endfacet
  facet normal 0 0 -1
    outer loop
      vertex 60 0 0
      vertex 0 8 0
      vertex 15 8 0
    endloop
  endfacet
  facet normal 0 0 -1
    outer loop
      vertex 22.5 20 0
      vertex 15 8 0
      vertex 15 100 0
    endloop
  endfacet
  facet normal 0 0 -1
    outer loop
      vertex 24 91.0711 0
      vertex 15 100 0
      vertex 24 100 0
    endloop
  endfacet
  facet normal 0 0 -1
    outer loop
      vertex 45 8 0
      vertex 35.3033 39.6967 0
      vertex 36.9291 42.1299 0
    endloop
  endfacet
  facet normal 0 0 -1
    outer loop
      vertex 23.7486 91.0211 0
      vertex 15 100 0
      vertex 24 91.0711 0
    endloop
  endfacet
  facet normal 0 0 -1
    outer loop
      vertex 22.6878 90.3122 0
      vertex 15 100 0
      vertex 23.7486 91.0211 0
    endloop
  endfacet
  facet normal 0 0 -1
    outer loop
      vertex 21.9789 89.2514 0
      vertex 15 100 0
      vertex 22.6878 90.3122 0
    endloop
  endfacet
  facet normal 0 0 -1
    outer loop
      vertex 21.73 88 0
      vertex 15 100 0
      vertex 21.9789 89.2514 0
    endloop
  endfacet
  facet normal 0 0 -1
    outer loop
      vertex 21.9789 86.7486 0
      vertex 15 100 0
      vertex 21.73 88 0
    endloop
  endfacet
  facet normal 0 0 -1
    outer loop
      vertex 27.3122 85.6878 0
      vertex 30 77.5 0
      vertex 26.2514 84.9789 0
    endloop
  endfacet
  facet normal 0 0 -1
    outer loop
      vertex 26 100 0
      vertex 27.3122 90.3122 0
      vertex 26.2514 91.0211 0
    endloop
  endfacet
  facet normal 0 0 -1
    outer loop
      vertex 45 8 0
      vertex 36.9291 42.1299 0
      vertex 37.5 45 0
    endloop
  endfacet
  facet normal 0 0 -1
    outer loop
      vertex 45 8 0
      vertex 37.5 45 0
      vertex 36.9291 47.8701 0
    endloop
  endfacet
  facet normal 0 0 -1
    outer loop
      vertex 26 100 0
      vertex 28.0211 89.2514 0
      vertex 27.3122 90.3122 0
    endloop
  endfacet
  facet normal 0 0 -1
    outer loop
      vertex 30 77.5 0
      vertex 28.0211 86.7486 0
      vertex 28.27 88 0
    endloop
  endfacet
  facet normal 0 0 -1
    outer loop
      vertex 36.9291 72.8701 0
      vertex 26 100 0
      vertex 45 100 0
    endloop
  endfacet
  facet normal 0 0 -1
    outer loop
      vertex 60 0 0
      vertex 15 8 0
      vertex 45 8 0
    endloop
  endfacet
  facet normal 0 0 -1
    outer loop
      vertex 32.8701 13.0709 0
      vertex 45 8 0
      vertex 30 12.5 0
    endloop
  endfacet
  facet normal 0 0 -1
    outer loop
      vertex 23.0709 17.1299 0
      vertex 15 8 0
      vertex 22.5 20 0
    endloop
  endfacet
  facet normal 0 0 -1
    outer loop
      vertex 23.0709 22.8701 0
      vertex 22.5 20 0
      vertex 15 100 0
    endloop
  endfacet
  facet normal 0 0 -1
    outer loop
      vertex 24.6967 14.6967 0
      vertex 15 8 0
      vertex 23.0709 17.1299 0
    endloop
  endfacet
  facet normal 0 0 -1
    outer loop
      vertex 27.1299 13.0709 0
      vertex 15 8 0
      vertex 24.6967 14.6967 0
    endloop
  endfacet
  facet normal 0 0 -1
    outer loop
      vertex 45 8 0
      vertex 15 8 0
      vertex 27.1299 13.0709 0
    endloop
  endfacet
  facet normal 0 0 -1
    outer loop
      vertex 45 8 0
      vertex 27.1299 13.0709 0
      vertex 30 12.5 0
    endloop
  endfacet
  facet normal 0 0 -1
    outer loop
      vertex 35.3033 14.6967 0
      vertex 45 8 0
      vertex 32.8701 13.0709 0
    endloop
  endfacet
  facet normal 0 0 -1
    outer loop
      vertex 30 62.5 0
      vertex 32.8701 51.9291 0
      vertex 27.1299 63.0709 0
    endloop
  endfacet
  facet normal 0 0 -1
    outer loop
      vertex 45 8 0
      vertex 35.3033 14.6967 0
      vertex 36.9291 17.1299 0
    endloop
  endfacet
  facet normal 0 0 -1
    outer loop
      vertex 45 8 0
      vertex 36.9291 17.1299 0
      vertex 37.5 20 0
    endloop
  endfacet
  facet normal 0 0 -1
    outer loop
      vertex 45 8 0
      vertex 37.5 20 0
      vertex 36.9291 22.8701 0
    endloop
  endfacet
  facet normal 0 0 -1
    outer loop
      vertex 35.3033 39.6967 0
      vertex 45 8 0
      vertex 32.8701 38.0709 0
    endloop
  endfacet
  facet normal 0 0 -1
    outer loop
      vertex 24.6967 39.6967 0
      vertex 27.1299 26.9291 0
      vertex 23.0709 42.1299 0
    endloop
  endfacet
  facet normal 0 0 -1
    outer loop
      vertex 22.5 45 0
      vertex 24.6967 25.3033 0
      vertex 15 100 0
    endloop
  endfacet
  facet normal 0 0 -1
    outer loop
      vertex 24.6967 25.3033 0
      vertex 23.0709 22.8701 0
      vertex 15 100 0
    endloop
  endfacet
  facet normal 0 0 -1
    outer loop
      vertex 23.0709 42.1299 0
      vertex 24.6967 25.3033 0
      vertex 22.5 45 0
    endloop
  endfacet
  facet normal 0 0 -1
    outer loop
      vertex 23.0709 47.8701 0
      vertex 22.5 45 0
      vertex 15 100 0
    endloop
  endfacet
  facet normal 0 0 -1
    outer loop
      vertex 27.1299 26.9291 0
      vertex 24.6967 25.3033 0
      vertex 23.0709 42.1299 0
    endloop
  endfacet
  facet normal 0 0 -1
    outer loop
      vertex 27.1299 63.0709 0
      vertex 30 52.5 0
      vertex 24.6967 64.6967 0
    endloop
  endfacet
  facet normal 0 0 -1
    outer loop
      vertex 27.1299 38.0709 0
      vertex 27.1299 26.9291 0
      vertex 24.6967 39.6967 0
    endloop
  endfacet
  facet normal 0 0 -1
    outer loop
      vertex 32.8701 38.0709 0
      vertex 32.8701 26.9291 0
      vertex 30 37.5 0
    endloop
  endfacet
  facet normal 0 0 -1
    outer loop
      vertex 30 27.5 0
      vertex 27.1299 26.9291 0
      vertex 27.1299 38.0709 0
    endloop
  endfacet
  facet normal 0 0 -1
    outer loop
      vertex 32.8701 38.0709 0
      vertex 35.3033 25.3033 0
      vertex 32.8701 26.9291 0
    endloop
  endfacet
  facet normal 0 0 -1
    outer loop
      vertex 45 8 0
      vertex 36.9291 22.8701 0
      vertex 32.8701 38.0709 0
    endloop
  endfacet
  facet normal 0 0 -1
    outer loop
      vertex 60 8 0
      vertex 60 0 0
      vertex 45 8 0
    endloop
  endfacet
  facet normal 0 0 -1
    outer loop
      vertex 27.1299 51.9291 0
      vertex 24.6967 64.6967 0
      vertex 30 52.5 0
    endloop
  endfacet
  facet normal 0 0 -1
    outer loop
      vertex 30 52.5 0
      vertex 27.1299 63.0709 0
      vertex 32.8701 51.9291 0
    endloop
  endfacet
  facet normal 0 0 -1
    outer loop
      vertex 32.8701 63.0709 0
      vertex 36.9291 47.8701 0
      vertex 35.3033 50.3033 0
    endloop
  endfacet
  facet normal 0 0 -1
    outer loop
      vertex 32.8701 63.0709 0
      vertex 35.3033 50.3033 0
      vertex 30 62.5 0
    endloop
  endfacet
  facet normal 0 0 -1
    outer loop
      vertex 32.8701 51.9291 0
      vertex 30 62.5 0
      vertex 35.3033 50.3033 0
    endloop
  endfacet
  facet normal 0 0 -1
    outer loop
      vertex 32.8701 38.0709 0
      vertex 36.9291 22.8701 0
      vertex 35.3033 25.3033 0
    endloop
  endfacet
  facet normal 0 0 -1
    outer loop
      vertex 30 27.5 0
      vertex 30 37.5 0
      vertex 32.8701 26.9291 0
    endloop
  endfacet
  facet normal 0 0 -1
    outer loop
      vertex 30 37.5 0
      vertex 30 27.5 0
      vertex 27.1299 38.0709 0
    endloop
  endfacet
  facet normal 0 0 -1
    outer loop
      vertex 23.0709 47.8701 0
      vertex 15 100 0
      vertex 24.6967 50.3033 0
    endloop
  endfacet
  facet normal 0 0 -1
    outer loop
      vertex 22.5 70 0
      vertex 15 100 0
      vertex 23.0709 72.8701 0
    endloop
  endfacet
  facet normal 0 0 -1
    outer loop
      vertex 24.6967 64.6967 0
      vertex 27.1299 51.9291 0
      vertex 23.0709 67.1299 0
    endloop
  endfacet
  facet normal 0 0 -1
    outer loop
      vertex 22.5 70 0
      vertex 23.0709 67.1299 0
      vertex 15 100 0
    endloop
  endfacet
  facet normal 0 0 -1
    outer loop
      vertex 30 77.5 0
      vertex 28.27 88 0
      vertex 32.8701 76.9291 0
    endloop
  endfacet
  facet normal 0 0 -1
    outer loop
      vertex 26 100 0
      vertex 26.2514 91.0211 0
      vertex 26 91.0711 0
    endloop
  endfacet
  facet normal 0 0 -1
    outer loop
      vertex 30 77.5 0
      vertex 27.3122 85.6878 0
      vertex 28.0211 86.7486 0
    endloop
  endfacet
  facet normal 0 0 -1
    outer loop
      vertex 32.8701 76.9291 0
      vertex 28.0211 89.2514 0
      vertex 26 100 0
    endloop
  endfacet
  facet normal 0 0 -1
    outer loop
      vertex 32.8701 76.9291 0
      vertex 26 100 0
      vertex 35.3033 75.3033 0
    endloop
  endfacet
  facet normal 0 0 -1
    outer loop
      vertex 37.5 70 0
      vertex 36.9291 72.8701 0
      vertex 45 100 0
    endloop
  endfacet
  facet normal 0 0 -1
    outer loop
      vertex 27.1299 76.9291 0
      vertex 25 84.73 0
      vertex 26.2514 84.9789 0
    endloop
  endfacet
  facet normal 0 0 -1
    outer loop
      vertex 24.6967 50.3033 0
      vertex 23.0709 67.1299 0
      vertex 27.1299 51.9291 0
    endloop
  endfacet
  facet normal 0 0 -1
    outer loop
      vertex 23.0709 72.8701 0
      vertex 15 100 0
      vertex 24.6967 75.3033 0
    endloop
  endfacet
  facet normal 0 0 -1
    outer loop
      vertex 24.6967 50.3033 0
      vertex 15 100 0
      vertex 23.0709 67.1299 0
    endloop
  endfacet
  facet normal 0 0 -1
    outer loop
      vertex 35.3033 64.6967 0
      vertex 36.9291 47.8701 0
      vertex 32.8701 63.0709 0
    endloop
  endfacet
  facet normal 0 0 -1
    outer loop
      vertex 27.1299 76.9291 0
      vertex 23.7486 84.9789 0
      vertex 25 84.73 0
    endloop
  endfacet
  facet normal 0 0 -1
    outer loop
      vertex 24.6967 75.3033 0
      vertex 15 100 0
      vertex 21.9789 86.7486 0
    endloop
  endfacet
  facet normal 0 0 -1
    outer loop
      vertex 24.6967 75.3033 0
      vertex 21.9789 86.7486 0
      vertex 22.6878 85.6878 0
    endloop
  endfacet
  facet normal 0 0 -1
    outer loop
      vertex 24.6967 75.3033 0
      vertex 22.6878 85.6878 0
      vertex 23.7486 84.9789 0
    endloop
  endfacet
  facet normal 0 0 -1
    outer loop
      vertex 35.3033 75.3033 0
      vertex 26 100 0
      vertex 36.9291 72.8701 0
    endloop
  endfacet
  facet normal 0 0 -1
    outer loop
      vertex 45 8 0
      vertex 36.9291 47.8701 0
      vertex 35.3033 64.6967 0
    endloop
  endfacet
  facet normal 0 0 -1
    outer loop
      vertex 27.1299 76.9291 0
      vertex 26.2514 84.9789 0
      vertex 30 77.5 0
    endloop
  endfacet
  facet normal 0 0 -1
    outer loop
      vertex 24.6967 75.3033 0
      vertex 23.7486 84.9789 0
      vertex 27.1299 76.9291 0
    endloop
  endfacet
  facet normal 0 0 -1
    outer loop
      vertex 45 8 0
      vertex 35.3033 64.6967 0
      vertex 36.9291 67.1299 0
    endloop
  endfacet
  facet normal 0 0 -1
    outer loop
      vertex 28.27 88 0
      vertex 28.0211 89.2514 0
      vertex 32.8701 76.9291 0
    endloop
  endfacet
  facet normal 0 0 -1
    outer loop
      vertex 45 8 0
      vertex 36.9291 67.1299 0
      vertex 37.5 70 0
    endloop
  endfacet
  facet normal 0 0 -1
    outer loop
      vertex 45 8 0
      vertex 37.5 70 0
      vertex 45 100 0
    endloop
  endfacet
  facet normal 0 1 0
    outer loop
      vertex 9.31 8 6
      vertex 15 8 0
      vertex 5.69 8 6
    endloop
  endfacet
  facet normal 0 1 0
    outer loop
      vertex 8.19266 8 7.67222
      vertex 0 8 12
      vertex 15 8 12
    endloop
  endfacet
  facet normal 0 1 0
    outer loop
      vertex 0 8 0
      vertex 0 8 12
      vertex 5.82778 8 6.69266
    endloop
  endfacet
  facet normal 0 1 0
    outer loop
      vertex 0 8 0
      vertex 5.82778 8 6.69266
      vertex 5.69 8 6
    endloop
  endfacet
  facet normal 0 1 0
    outer loop
      vertex 0 8 0
      vertex 5.69 8 6
      vertex 15 8 0
    endloop
  endfacet
  facet normal 0 1 0
    outer loop
      vertex 15 8 0
      vertex 9.31 8 6
      vertex 15 8 12
    endloop
  endfacet
  facet normal 0 1 0
    outer loop
      vertex 6.22014 8 7.27986
      vertex 0 8 12
      vertex 6.80734 8 7.67222
    endloop
  endfacet
  facet normal 0 1 0
    outer loop
      vertex 9.31 8 6
      vertex 9.17222 8 6.69266
      vertex 15 8 12
    endloop
  endfacet
  facet normal 0 1 0
    outer loop
      vertex 6.80734 8 7.67222
      vertex 0 8 12
      vertex 7.5 8 7.81
    endloop
  endfacet
  facet normal 0 1 0
    outer loop
      vertex 9.17222 8 6.69266
      vertex 8.77986 8 7.27986
      vertex 15 8 12
    endloop
  endfacet
  facet normal 0 1 0
    outer loop
      vertex 8.77986 8 7.27986
      vertex 8.19266 8 7.67222
      vertex 15 8 12
    endloop
  endfacet
  facet normal 0 1 0
    outer loop
      vertex 7.5 8 7.81
      vertex 0 8 12
      vertex 8.19266 8 7.67222
    endloop
  endfacet
  facet normal 0 1 0
    outer loop
      vertex 5.82778 8 6.69266
      vertex 0 8 12
      vertex 6.22014 8 7.27986
    endloop
  endfacet
  facet normal 0 0 1
    outer loop
      vertex 0 8 12
      vertex 0 0 12
      vertex 60 0 12
    endloop
  endfacet
  facet normal 0 0 1
    outer loop
      vertex 15 8 12
      vertex 0 8 12
      vertex 60 0 12
    endloop
  endfacet
  facet normal 0 0 1
    outer loop
      vertex 45 8 12
      vertex 15 8 12
      vertex 60 0 12
    endloop
  endfacet
  facet normal 0 0 1
    outer loop
      vertex 60 8 12
      vertex 45 8 12
      vertex 60 0 12
    endloop
  endfacet
  facet normal 0 0 1
    outer loop
      vertex 15 100 12
      vertex 21.9789 89.2514 12
      vertex 24 100 12
    endloop
  endfacet
  facet normal 0 0 1
    outer loop
      vertex 45 100 12
      vertex 26 100 12
      vertex 26 91.0711 12
    endloop
  endfacet
  facet normal 0 0 1
    outer loop
      vertex 45 100 12
      vertex 26 91.0711 12
      vertex 26.2514 91.0211 12
    endloop
  endfacet
  facet normal 0 0 1
    outer loop
      vertex 45 100 12
      vertex 26.2514 91.0211 12
      vertex 27.3122 90.3122 12
    endloop
  endfacet
  facet normal 0 0 1
    outer loop
      vertex 45 100 12
      vertex 27.3122 90.3122 12
      vertex 28.0211 89.2514 12
    endloop
  endfacet
  facet normal 0 0 1
    outer loop
      vertex 45 100 12
      vertex 28.0211 89.2514 12
      vertex 28.27 88 12
    endloop
  endfacet
  facet normal 0 0 1
    outer loop
      vertex 45 100 12
      vertex 28.27 88 12
      vertex 28.0211 86.7486 12
    endloop
  endfacet
  facet normal 0 0 1
    outer loop
      vertex 15 100 12
      vertex 21.73 88 12
      vertex 21.9789 89.2514 12
    endloop
  endfacet
  facet normal 0 0 1
    outer loop
      vertex 15 100 12
      vertex 21.9789 86.7486 12
      vertex 21.73 88 12
    endloop
  endfacet
  facet normal 0 0 1
    outer loop
      vertex 23.7486 91.0211 12
      vertex 24 100 12
      vertex 22.6878 90.3122 12
    endloop
  endfacet
  facet normal 0 0 1
    outer loop
      vertex 22.6878 90.3122 12
      vertex 24 100 12
      vertex 21.9789 89.2514 12
    endloop
  endfacet
  facet normal 0 0 1
    outer loop
      vertex 30 12.5 12
      vertex 15 8 12
      vertex 45 8 12
    endloop
  endfacet
  facet normal 0 0 1
    outer loop
      vertex 24.6967 39.6967 12
      vertex 23.0709 42.1299 12
      vertex 15 8 12
    endloop
  endfacet
  facet normal 0 0 1
    outer loop
      vertex 22.5 20 12
      vertex 15 8 12
      vertex 23.0709 17.1299 12
    endloop
  endfacet
  facet normal 0 0 1
    outer loop
      vertex 23.0709 22.8701 12
      vertex 15 8 12
      vertex 22.5 20 12
    endloop
  endfacet
  facet normal 0 0 1
    outer loop
      vertex 27.1299 38.0709 12
      vertex 24.6967 39.6967 12
      vertex 15 8 12
    endloop
  endfacet
  facet normal 0 0 1
    outer loop
      vertex 23.0709 72.8701 12
      vertex 24.6967 75.3033 12
      vertex 28.0211 86.7486 12
    endloop
  endfacet
  facet normal 0 0 1
    outer loop
      vertex 37.5 20 12
      vertex 36.9291 17.1299 12
      vertex 45 8 12
    endloop
  endfacet
  facet normal 0 0 1
    outer loop
      vertex 32.8701 13.0709 12
      vertex 30 12.5 12
      vertex 45 8 12
    endloop
  endfacet
  facet normal 0 0 1
    outer loop
      vertex 36.9291 17.1299 12
      vertex 35.3033 14.6967 12
      vertex 45 8 12
    endloop
  endfacet
  facet normal 0 0 1
    outer loop
      vertex 30 37.5 12
      vertex 27.1299 26.9291 12
      vertex 30 27.5 12
    endloop
  endfacet
  facet normal 0 0 1
    outer loop
      vertex 32.8701 38.0709 12
      vertex 30 27.5 12
      vertex 32.8701 26.9291 12
    endloop
  endfacet
  facet normal 0 0 1
    outer loop
      vertex 35.3033 39.6967 12
      vertex 32.8701 38.0709 12
      vertex 32.8701 26.9291 12
    endloop
  endfacet
  facet normal 0 0 1
    outer loop
      vertex 45 100 12
      vertex 36.9291 22.8701 12
      vertex 45 8 12
    endloop
  endfacet
  facet normal 0 0 1
    outer loop
      vertex 45 100 12
      vertex 35.3033 25.3033 12
      vertex 36.9291 22.8701 12
    endloop
  endfacet
  facet normal 0 0 1
    outer loop
      vertex 35.3033 14.6967 12
      vertex 32.8701 13.0709 12
      vertex 45 8 12
    endloop
  endfacet
  facet normal 0 0 1
    outer loop
      vertex 27.1299 13.0709 12
      vertex 15 8 12
      vertex 30 12.5 12
    endloop
  endfacet
  facet normal 0 0 1
    outer loop
      vertex 24.6967 14.6967 12
      vertex 15 8 12
      vertex 27.1299 13.0709 12
    endloop
  endfacet
  facet normal 0 0 1
    outer loop
      vertex 23.0709 17.1299 12
      vertex 15 8 12
      vertex 24.6967 14.6967 12
    endloop
  endfacet
  facet normal 0 0 1
    outer loop
      vertex 35.3033 64.6967 12
      vertex 32.8701 63.0709 12
      vertex 30 52.5 12
    endloop
  endfacet
  facet normal 0 0 1
    outer loop
      vertex 24.6967 50.3033 12
      vertex 27.1299 51.9291 12
      vertex 30 62.5 12
    endloop
  endfacet
  facet normal 0 0 1
    outer loop
      vertex 30 62.5 12
      vertex 27.1299 63.0709 12
      vertex 23.0709 47.8701 12
    endloop
  endfacet
  facet normal 0 0 1
    outer loop
      vertex 27.1299 38.0709 12
      vertex 15 8 12
      vertex 23.0709 22.8701 12
    endloop
  endfacet
  facet normal 0 0 1
    outer loop
      vertex 36.9291 22.8701 12
      vertex 37.5 20 12
      vertex 45 8 12
    endloop
  endfacet
  facet normal 0 0 1
    outer loop
      vertex 36.9291 42.1299 12
      vertex 35.3033 39.6967 12
      vertex 32.8701 26.9291 12
    endloop
  endfacet
  facet normal 0 0 1
    outer loop
      vertex 32.8701 38.0709 12
      vertex 30 37.5 12
      vertex 30 27.5 12
    endloop
  endfacet
  facet normal 0 0 1
    outer loop
      vertex 30 37.5 12
      vertex 23.0709 22.8701 12
      vertex 24.6967 25.3033 12
    endloop
  endfacet
  facet normal 0 0 1
    outer loop
      vertex 45 100 12
      vertex 37.5 45 12
      vertex 35.3033 25.3033 12
    endloop
  endfacet
  facet normal 0 0 1
    outer loop
      vertex 45 100 12
      vertex 36.9291 47.8701 12
      vertex 37.5 45 12
    endloop
  endfacet
  facet normal 0 0 1
    outer loop
      vertex 37.5 45 12
      vertex 36.9291 42.1299 12
      vertex 35.3033 25.3033 12
    endloop
  endfacet
  facet normal 0 0 1
    outer loop
      vertex 36.9291 42.1299 12
      vertex 32.8701 26.9291 12
      vertex 35.3033 25.3033 12
    endloop
  endfacet
  facet normal 0 0 1
    outer loop
      vertex 30 37.5 12
      vertex 24.6967 25.3033 12
      vertex 27.1299 26.9291 12
    endloop
  endfacet
  facet normal 0 0 1
    outer loop
      vertex 35.3033 50.3033 12
      vertex 36.9291 47.8701 12
      vertex 45 100 12
    endloop
  endfacet
  facet normal 0 0 1
    outer loop
      vertex 36.9291 67.1299 12
      vertex 35.3033 50.3033 12
      vertex 45 100 12
    endloop
  endfacet
  facet normal 0 0 1
    outer loop
      vertex 27.1299 76.9291 12
      vertex 30 77.5 12
      vertex 45 100 12
    endloop
  endfacet
  facet normal 0 0 1
    outer loop
      vertex 45 100 12
      vertex 28.0211 86.7486 12
      vertex 27.1299 76.9291 12
    endloop
  endfacet
  facet normal 0 0 1
    outer loop
      vertex 36.9291 67.1299 12
      vertex 35.3033 64.6967 12
      vertex 32.8701 51.9291 12
    endloop
  endfacet
  facet normal 0 0 1
    outer loop
      vertex 45 100 12
      vertex 30 77.5 12
      vertex 32.8701 76.9291 12
    endloop
  endfacet
  facet normal 0 0 1
    outer loop
      vertex 32.8701 51.9291 12
      vertex 35.3033 50.3033 12
      vertex 36.9291 67.1299 12
    endloop
  endfacet
  facet normal 0 0 1
    outer loop
      vertex 30 37.5 12
      vertex 27.1299 38.0709 12
      vertex 23.0709 22.8701 12
    endloop
  endfacet
  facet normal 0 0 1
    outer loop
      vertex 45 100 12
      vertex 37.5 70 12
      vertex 36.9291 67.1299 12
    endloop
  endfacet
  facet normal 0 0 1
    outer loop
      vertex 32.8701 76.9291 12
      vertex 35.3033 75.3033 12
      vertex 45 100 12
    endloop
  endfacet
  facet normal 0 0 1
    outer loop
      vertex 32.8701 63.0709 12
      vertex 30 62.5 12
      vertex 27.1299 51.9291 12
    endloop
  endfacet
  facet normal 0 0 1
    outer loop
      vertex 36.9291 72.8701 12
      vertex 37.5 70 12
      vertex 45 100 12
    endloop
  endfacet
  facet normal 0 0 1
    outer loop
      vertex 30 62.5 12
      vertex 23.0709 47.8701 12
      vertex 24.6967 50.3033 12
    endloop
  endfacet
  facet normal 0 0 1
    outer loop
      vertex 27.1299 51.9291 12
      vertex 30 52.5 12
      vertex 32.8701 63.0709 12
    endloop
  endfacet
  facet normal 0 0 1
    outer loop
      vertex 30 52.5 12
      vertex 32.8701 51.9291 12
      vertex 35.3033 64.6967 12
    endloop
  endfacet
  facet normal 0 0 1
    outer loop
      vertex 28.0211 86.7486 12
      vertex 27.3122 85.6878 12
      vertex 23.0709 72.8701 12
    endloop
  endfacet
  facet normal 0 0 1
    outer loop
      vertex 24 91.0711 12
      vertex 24 100 12
      vertex 23.7486 91.0211 12
    endloop
  endfacet
  facet normal 0 0 1
    outer loop
      vertex 26.2514 84.9789 12
      vertex 23.0709 72.8701 12
      vertex 27.3122 85.6878 12
    endloop
  endfacet
  facet normal 0 0 1
    outer loop
      vertex 25 84.73 12
      vertex 23.0709 72.8701 12
      vertex 26.2514 84.9789 12
    endloop
  endfacet
  facet normal 0 0 1
    outer loop
      vertex 23.7486 84.9789 12
      vertex 23.0709 72.8701 12
      vertex 25 84.73 12
    endloop
  endfacet
  facet normal 0 0 1
    outer loop
      vertex 22.6878 85.6878 12
      vertex 23.0709 72.8701 12
      vertex 23.7486 84.9789 12
    endloop
  endfacet
  facet normal 0 0 1
    outer loop
      vertex 21.9789 86.7486 12
      vertex 23.0709 72.8701 12
      vertex 22.6878 85.6878 12
    endloop
  endfacet
  facet normal 0 0 1
    outer loop
      vertex 15 100 12
      vertex 23.0709 72.8701 12
      vertex 21.9789 86.7486 12
    endloop
  endfacet
  facet normal 0 0 1
    outer loop
      vertex 24.6967 75.3033 12
      vertex 27.1299 76.9291 12
      vertex 28.0211 86.7486 12
    endloop
  endfacet
  facet normal 0 0 1
    outer loop
      vertex 15 100 12
      vertex 22.5 70 12
      vertex 23.0709 72.8701 12
    endloop
  endfacet
  facet normal 0 0 1
    outer loop
      vertex 15 100 12
      vertex 23.0709 67.1299 12
      vertex 22.5 70 12
    endloop
  endfacet
  facet normal 0 0 1
    outer loop
      vertex 35.3033 75.3033 12
      vertex 36.9291 72.8701 12
      vertex 45 100 12
    endloop
  endfacet
  facet normal 0 0 1
    outer loop
      vertex 24.6967 64.6967 12
      vertex 23.0709 47.8701 12
      vertex 27.1299 63.0709 12
    endloop
  endfacet
  facet normal 0 0 1
    outer loop
      vertex 23.0709 67.1299 12
      vertex 23.0709 47.8701 12
      vertex 24.6967 64.6967 12
    endloop
  endfacet
  facet normal 0 0 1
    outer loop
      vertex 15 100 12
      vertex 23.0709 47.8701 12
      vertex 23.0709 67.1299 12
    endloop
  endfacet
  facet normal 0 0 1
    outer loop
      vertex 15 100 12
      vertex 22.5 45 12
      vertex 23.0709 47.8701 12
    endloop
  endfacet
  facet normal 0 0 1
    outer loop
      vertex 22.5 45 12
      vertex 15 8 12
      vertex 23.0709 42.1299 12
    endloop
  endfacet
  facet normal 0 0 1
    outer loop
      vertex 15 100 12
      vertex 15 8 12
      vertex 22.5 45 12
    endloop
  endfacet
  facet normal 1 0 0
    outer loop
      vertex 60 0 12
      vertex 60 0 0
      vertex 60 8 0
    endloop
  endfacet
  facet normal 1 0 0
    outer loop
      vertex 60 8 12
      vertex 60 0 12
      vertex 60 8 0
    endloop
  endfacet
  facet normal 0.980785 4.33187e-017 0.19509
    outer loop
      vertex 5.82778 0 5.30734
      vertex 5.82778 8 5.30734
      vertex 5.69 8 6
    endloop
  endfacet
  facet normal 0.980785 4.33187e-017 0.19509
    outer loop
      vertex 5.69 0 6
      vertex 5.82778 0 5.30734
      vertex 5.69 8 6
    endloop
  endfacet
  facet normal 0.831469 1.23361e-016 0.555571
    outer loop
      vertex 6.22014 0 4.72014
      vertex 6.22014 8 4.72014
      vertex 5.82778 8 5.30734
    endloop
  endfacet
  facet normal 0.831469 1.23361e-016 0.555571
    outer loop
      vertex 5.82778 0 5.30734
      vertex 6.22014 0 4.72014
      vertex 5.82778 8 5.30734
    endloop
  endfacet
  facet normal 0.555571 1.84623e-016 0.831469
    outer loop
      vertex 6.80734 0 4.32778
      vertex 6.80734 8 4.32778
      vertex 6.22014 8 4.72014
    endloop
  endfacet
  facet normal 0.555571 1.84623e-016 0.831469
    outer loop
      vertex 6.22014 0 4.72014
      vertex 6.80734 0 4.32778
      vertex 6.22014 8 4.72014
    endloop
  endfacet
  facet normal 0.19509 2.17778e-016 0.980785
    outer loop
      vertex 7.5 0 4.19
      vertex 7.5 8 4.19
      vertex 6.80734 8 4.32778
    endloop
  endfacet
  facet normal 0.19509 2.17778e-016 0.980785
    outer loop
      vertex 6.80734 0 4.32778
      vertex 7.5 0 4.19
      vertex 6.80734 8 4.32778
    endloop
  endfacet
  facet normal -0.19509 2.17778e-016 0.980785
    outer loop
      vertex 8.19266 0 4.32778
      vertex 8.19266 8 4.32778
      vertex 7.5 8 4.19
    endloop
  endfacet
  facet normal -0.19509 2.17778e-016 0.980785
    outer loop
      vertex 7.5 0 4.19
      vertex 8.19266 0 4.32778
      vertex 7.5 8 4.19
    endloop
  endfacet
  facet normal -0.555571 1.84623e-016 0.831469
    outer loop
      vertex 8.77986 0 4.72014
      vertex 8.77986 8 4.72014
      vertex 8.19266 8 4.32778
    endloop
  endfacet
  facet normal -0.555571 1.84623e-016 0.831469
    outer loop
      vertex 8.19266 0 4.32778
      vertex 8.77986 0 4.72014
      vertex 8.19266 8 4.32778
    endloop
  endfacet
  facet normal -0.831469 1.23361e-016 0.555571
    outer loop
      vertex 9.17222 8 5.30734
      vertex 8.77986 8 4.72014
      vertex 9.17222 0 5.30734
    endloop
  endfacet
  facet normal -0.831469 1.23361e-016 0.555571
    outer loop
      vertex 9.17222 0 5.30734
      vertex 8.77986 8 4.72014
      vertex 8.77986 0 4.72014
    endloop
  endfacet
  facet normal -0.980785 4.33187e-017 0.19509
    outer loop
      vertex 9.31 8 6
      vertex 9.17222 8 5.30734
      vertex 9.31 0 6
    endloop
  endfacet
  facet normal -0.980785 4.33187e-017 0.19509
    outer loop
      vertex 9.31 0 6
      vertex 9.17222 8 5.30734
      vertex 9.17222 0 5.30734
    endloop
  endfacet
  facet normal 0 1 -2.22045e-016
    outer loop
      vertex 6.22014 2.84187e-016 7.27986
      vertex 6.80734 3.71308e-016 7.67222
      vertex 5.82778 1.53801e-016 6.69266
    endloop
  endfacet
  facet normal 0 1 -2.22045e-016
    outer loop
      vertex 5.82778 1.53801e-016 6.69266
      vertex 6.80734 3.71308e-016 7.67222
      vertex 7.5 4.01901e-016 7.81
    endloop
  endfacet
  facet normal 0 1 -2.22045e-016
    outer loop
      vertex 5.82778 1.53801e-016 6.69266
      vertex 7.5 4.01901e-016 7.81
      vertex 8.19266 3.71308e-016 7.67222
    endloop
  endfacet
  facet normal 0 1 -2.22045e-016
    outer loop
      vertex 5.82778 1.53801e-016 6.69266
      vertex 8.19266 3.71308e-016 7.67222
      vertex 8.77986 2.84187e-016 7.27986
    endloop
  endfacet
  facet normal 0 1 -2.22045e-016
    outer loop
      vertex 5.82778 1.53801e-016 6.69266
      vertex 8.77986 2.84187e-016 7.27986
      vertex 9.17222 1.53801e-016 6.69266
    endloop
  endfacet
  facet normal 0 1 -2.22045e-016
    outer loop
      vertex 5.82778 1.53801e-016 6.69266
      vertex 9.17222 1.53801e-016 6.69266
      vertex 9.31 0 6
    endloop
  endfacet
  facet normal 0 1 -2.22045e-016
    outer loop
      vertex 5.82778 1.53801e-016 6.69266
      vertex 9.31 0 6
      vertex 5.69 0 6
    endloop
  endfacet
  facet normal -0.980785 -4.33187e-017 -0.19509
    outer loop
      vertex 9.31 8 6
      vertex 9.31 0 6
      vertex 9.17222 8 6.69266
    endloop
  endfacet
  facet normal -0.980785 -4.33187e-017 -0.19509
    outer loop
      vertex 9.17222 8 6.69266
      vertex 9.31 0 6
      vertex 9.17222 1.53801e-016 6.69266
    endloop
  endfacet
  facet normal 0.980785 -4.33187e-017 -0.19509
    outer loop
      vertex 5.69 8 6
      vertex 5.82778 8 6.69266
      vertex 5.82778 1.53801e-016 6.69266
    endloop
  endfacet
  facet normal 0.980785 -4.33187e-017 -0.19509
    outer loop
      vertex 5.69 0 6
      vertex 5.69 8 6
      vertex 5.82778 1.53801e-016 6.69266
    endloop
  endfacet
  facet normal 0.980785 4.33187e-017 0.19509
    outer loop
      vertex 50.8278 0 5.30734
      vertex 50.8278 8 5.30734
      vertex 50.69 8 6
    endloop
  endfacet
  facet normal 0.980785 4.33187e-017 0.19509
    outer loop
      vertex 50.69 0 6
      vertex 50.8278 0 5.30734
      vertex 50.69 8 6
    endloop
  endfacet
  facet normal 0.831469 1.23361e-016 0.555571
    outer loop
      vertex 51.2201 0 4.72014
      vertex 51.2201 8 4.72014
      vertex 50.8278 8 5.30734
    endloop
  endfacet
  facet normal 0.831469 1.23361e-016 0.555571
    outer loop
      vertex 50.8278 0 5.30734
      vertex 51.2201 0 4.72014
      vertex 50.8278 8 5.30734
    endloop
  endfacet
  facet normal 0.555571 1.84623e-016 0.831469
    outer loop
      vertex 51.8073 0 4.32778
      vertex 51.8073 8 4.32778
      vertex 51.2201 8 4.72014
    endloop
  endfacet
  facet normal 0.555571 1.84623e-016 0.831469
    outer loop
      vertex 51.2201 0 4.72014
      vertex 51.8073 0 4.32778
      vertex 51.2201 8 4.72014
    endloop
  endfacet
  facet normal 0.19509 2.17778e-016 0.980785
    outer loop
      vertex 52.5 0 4.19
      vertex 52.5 8 4.19
      vertex 51.8073 8 4.32778
    endloop
  endfacet
  facet normal 0.19509 2.17778e-016 0.980785
    outer loop
      vertex 51.8073 0 4.32778
      vertex 52.5 0 4.19
      vertex 51.8073 8 4.32778
    endloop
  endfacet
  facet normal -0.19509 2.17778e-016 0.980785
    outer loop
      vertex 53.1927 0 4.32778
      vertex 53.1927 8 4.32778
      vertex 52.5 8 4.19
    endloop
  endfacet
  facet normal -0.19509 2.17778e-016 0.980785
    outer loop
      vertex 52.5 0 4.19
      vertex 53.1927 0 4.32778
      vertex 52.5 8 4.19
    endloop
  endfacet
  facet normal -0.555571 1.84623e-016 0.831469
    outer loop
      vertex 53.7799 0 4.72014
      vertex 53.7799 8 4.72014
      vertex 53.1927 8 4.32778
    endloop
  endfacet
  facet normal -0.555571 1.84623e-016 0.831469
    outer loop
      vertex 53.1927 0 4.32778
      vertex 53.7799 0 4.72014
      vertex 53.1927 8 4.32778
    endloop
  endfacet
  facet normal -0.831469 1.23361e-016 0.555571
    outer loop
      vertex 54.1722 8 5.30734
      vertex 53.7799 8 4.72014
      vertex 54.1722 0 5.30734
    endloop
  endfacet
  facet normal -0.831469 1.23361e-016 0.555571
    outer loop
      vertex 54.1722 0 5.30734
      vertex 53.7799 8 4.72014
      vertex 53.7799 0 4.72014
    endloop
  endfacet
  facet normal -0.980785 4.33187e-017 0.19509
    outer loop
      vertex 54.31 8 6
      vertex 54.1722 8 5.30734
      vertex 54.31 0 6
    endloop
  endfacet
  facet normal -0.980785 4.33187e-017 0.19509
    outer loop
      vertex 54.31 0 6
      vertex 54.1722 8 5.30734
      vertex 54.1722 0 5.30734
    endloop
  endfacet
  facet normal 0 1 -2.22045e-016
    outer loop
      vertex 51.2201 2.84187e-016 7.27986
      vertex 51.8073 3.71308e-016 7.67222
      vertex 50.8278 1.53801e-016 6.69266
    endloop
  endfacet
  facet normal 0 1 -2.22045e-016
    outer loop
      vertex 50.8278 1.53801e-016 6.69266
      vertex 51.8073 3.71308e-016 7.67222
      vertex 52.5 4.01901e-016 7.81
    endloop
  endfacet
  facet normal 0 1 -2.22045e-016
    outer loop
      vertex 50.8278 1.53801e-016 6.69266
      vertex 52.5 4.01901e-016 7.81
      vertex 53.1927 3.71308e-016 7.67222
    endloop
  endfacet
  facet normal 0 1 -2.22045e-016
    outer loop
      vertex 50.8278 1.53801e-016 6.69266
      vertex 53.1927 3.71308e-016 7.67222
      vertex 53.7799 2.84187e-016 7.27986
    endloop
  endfacet
  facet normal 0 1 -2.22045e-016
    outer loop
      vertex 50.8278 1.53801e-016 6.69266
      vertex 53.7799 2.84187e-016 7.27986
      vertex 54.1722 1.53801e-016 6.69266
    endloop
  endfacet
  facet normal 0 1 -2.22045e-016
    outer loop
      vertex 50.8278 1.53801e-016 6.69266
      vertex 54.1722 1.53801e-016 6.69266
      vertex 54.31 0 6
    endloop
  endfacet
  facet normal 0 1 -2.22045e-016
    outer loop
      vertex 50.8278 1.53801e-016 6.69266
      vertex 54.31 0 6
      vertex 50.69 0 6
    endloop
  endfacet
  facet normal -0.980785 -4.33187e-017 -0.19509
    outer loop
      vertex 54.31 8 6
      vertex 54.31 0 6
      vertex 54.1722 8 6.69266
    endloop
  endfacet
  facet normal -0.980785 -4.33187e-017 -0.19509
    outer loop
      vertex 54.1722 8 6.69266
      vertex 54.31 0 6
      vertex 54.1722 1.53801e-016 6.69266
    endloop
  endfacet
  facet normal 0.980785 -4.33187e-017 -0.19509
    outer loop
      vertex 50.69 8 6
      vertex 50.8278 8 6.69266
      vertex 50.8278 1.53801e-016 6.69266
    endloop
  endfacet
  facet normal 0.980785 -4.33187e-017 -0.19509
    outer loop
      vertex 50.69 0 6
      vertex 50.69 8 6
      vertex 50.8278 1.53801e-016 6.69266
    endloop
  endfacet
  facet normal 0 1 0
    outer loop
      vertex 54.31 8 6
      vertex 60 8 0
      vertex 50.69 8 6
    endloop
  endfacet
  facet normal 0 1 0
    outer loop
      vertex 53.1927 8 7.67222
      vertex 45 8 12
      vertex 60 8 12
    endloop
  endfacet
  facet normal 0 1 0
    outer loop
      vertex 45 8 0
      vertex 45 8 12
      vertex 50.8278 8 6.69266
    endloop
  endfacet
  facet normal 0 1 0
    outer loop
      vertex 45 8 0
      vertex 50.8278 8 6.69266
      vertex 50.69 8 6
    endloop
  endfacet
  facet normal 0 1 0
    outer loop
      vertex 45 8 0
      vertex 50.69 8 6
      vertex 60 8 0
    endloop
  endfacet
  facet normal 0 1 0
    outer loop
      vertex 60 8 0
      vertex 54.31 8 6
      vertex 60 8 12
    endloop
  endfacet
  facet normal 0 1 0
    outer loop
      vertex 51.2201 8 7.27986
      vertex 45 8 12
      vertex 51.8073 8 7.67222
    endloop
  endfacet
  facet normal 0 1 0
    outer loop
      vertex 54.31 8 6
      vertex 54.1722 8 6.69266
      vertex 60 8 12
    endloop
  endfacet
  facet normal 0 1 0
    outer loop
      vertex 51.8073 8 7.67222
      vertex 45 8 12
      vertex 52.5 8 7.81
    endloop
  endfacet
  facet normal 0 1 0
    outer loop
      vertex 54.1722 8 6.69266
      vertex 53.7799 8 7.27986
      vertex 60 8 12
    endloop
  endfacet
  facet normal 0 1 0
    outer loop
      vertex 53.7799 8 7.27986
      vertex 53.1927 8 7.67222
      vertex 60 8 12
    endloop
  endfacet
  facet normal 0 1 0
    outer loop
      vertex 52.5 8 7.81
      vertex 45 8 12
      vertex 53.1927 8 7.67222
    endloop
  endfacet
  facet normal 0 1 0
    outer loop
      vertex 50.8278 8 6.69266
      vertex 45 8 12
      vertex 51.2201 8 7.27986
    endloop
  endfacet
  facet normal 1 0 0
    outer loop
      vertex 45 8 12
      vertex 45 8 0
      vertex 45 100 0
    endloop
  endfacet
  facet normal 1 0 0
    outer loop
      vertex 45 100 12
      vertex 45 8 12
      vertex 45 100 0
    endloop
  endfacet
  facet normal 0 1 0
    outer loop
      vertex 26 100 0
      vertex 26 100 12
      vertex 45 100 0
    endloop
  endfacet
  facet normal 0 1 0
    outer loop
      vertex 45 100 0
      vertex 26 100 12
      vertex 45 100 12
    endloop
  endfacet
  facet normal -1 0 0
    outer loop
      vertex 26 94.6927 7.67222
      vertex 26 91.0711 12
      vertex 26 95.2799 7.27986
    endloop
  endfacet
  facet normal -1 0 0
    outer loop
      vertex 26 93.3073 4.32778
      vertex 26 100 0
      vertex 26 91.0711 0
    endloop
  endfacet
  facet normal -1 0 0
    outer loop
      vertex 26 95.81 6
      vertex 26 100 0
      vertex 26 95.6722 5.30734
    endloop
  endfacet
  facet normal -1 0 0
    outer loop
      vertex 26 92.19 6
      vertex 26 92.3278 5.30734
      vertex 26 91.0711 0
    endloop
  endfacet
  facet normal -1 0 0
    outer loop
      vertex 26 93.3073 7.67222
      vertex 26 91.0711 12
      vertex 26 94 7.81
    endloop
  endfacet
  facet normal -1 0 0
    outer loop
      vertex 26 92.3278 5.30734
      vertex 26 92.7201 4.72014
      vertex 26 91.0711 0
    endloop
  endfacet
  facet normal -1 0 0
    outer loop
      vertex 26 92.7201 4.72014
      vertex 26 93.3073 4.32778
      vertex 26 91.0711 0
    endloop
  endfacet
  facet normal -1 0 0
    outer loop
      vertex 26 94.6927 4.32778
      vertex 26 100 0
      vertex 26 94 4.19
    endloop
  endfacet
  facet normal -1 0 0
    outer loop
      vertex 26 95.2799 4.72014
      vertex 26 100 0
      vertex 26 94.6927 4.32778
    endloop
  endfacet
  facet normal -1 0 0
    outer loop
      vertex 26 95.6722 5.30734
      vertex 26 100 0
      vertex 26 95.2799 4.72014
    endloop
  endfacet
  facet normal -1 0 0
    outer loop
      vertex 26 100 12
      vertex 26 100 0
      vertex 26 95.81 6
    endloop
  endfacet
  facet normal -1 0 0
    outer loop
      vertex 26 100 12
      vertex 26 95.81 6
      vertex 26 95.6722 6.69266
    endloop
  endfacet
  facet normal -1 0 0
    outer loop
      vertex 26 100 12
      vertex 26 95.6722 6.69266
      vertex 26 95.2799 7.27986
    endloop
  endfacet
  facet normal -1 0 0
    outer loop
      vertex 26 100 12
      vertex 26 95.2799 7.27986
      vertex 26 91.0711 12
    endloop
  endfacet
  facet normal -1 0 0
    outer loop
      vertex 26 94 7.81
      vertex 26 91.0711 12
      vertex 26 94.6927 7.67222
    endloop
  endfacet
  facet normal -1 0 0
    outer loop
      vertex 26 92.7201 7.27986
      vertex 26 91.0711 12
      vertex 26 93.3073 7.67222
    endloop
  endfacet
  facet normal -1 0 0
    outer loop
      vertex 26 92.19 6
      vertex 26 91.0711 12
      vertex 26 92.3278 6.69266
    endloop
  endfacet
  facet normal -1 0 0
    outer loop
      vertex 26 91.0711 12
      vertex 26 92.7201 7.27986
      vertex 26 92.3278 6.69266
    endloop
  endfacet
  facet normal -1 0 0
    outer loop
      vertex 26 91.0711 12
      vertex 26 92.19 6
      vertex 26 91.0711 0
    endloop
  endfacet
  facet normal -1 0 0
    outer loop
      vertex 26 94 4.19
      vertex 26 100 0
      vertex 26 93.3073 4.32778
    endloop
  endfacet
  facet normal -0.19509 -0.980785 0
    outer loop
      vertex 26.2514 91.0211 0
      vertex 26.2514 91.0211 12
      vertex 26 91.0711 12
    endloop
  endfacet
  facet normal -0.19509 -0.980785 0
    outer loop
      vertex 26 91.0711 0
      vertex 26.2514 91.0211 0
      vertex 26 91.0711 12
    endloop
  endfacet
  facet normal -0.55557 -0.831469 0
    outer loop
      vertex 27.3122 90.3122 0
      vertex 27.3122 90.3122 12
      vertex 26.2514 91.0211 12
    endloop
  endfacet
  facet normal -0.55557 -0.831469 0
    outer loop
      vertex 26.2514 91.0211 0
      vertex 27.3122 90.3122 0
      vertex 26.2514 91.0211 12
    endloop
  endfacet
  facet normal -0.831469 -0.55557 0
    outer loop
      vertex 28.0211 89.2514 12
      vertex 27.3122 90.3122 12
      vertex 28.0211 89.2514 0
    endloop
  endfacet
  facet normal -0.831469 -0.55557 0
    outer loop
      vertex 28.0211 89.2514 0
      vertex 27.3122 90.3122 12
      vertex 27.3122 90.3122 0
    endloop
  endfacet
  facet normal -0.980785 -0.19509 0
    outer loop
      vertex 28.27 88 12
      vertex 28.0211 89.2514 12
      vertex 28.27 88 0
    endloop
  endfacet
  facet normal -0.980785 -0.19509 0
    outer loop
      vertex 28.27 88 0
      vertex 28.0211 89.2514 12
      vertex 28.0211 89.2514 0
    endloop
  endfacet
  facet normal -0.980785 0.19509 0
    outer loop
      vertex 28.27 88 12
      vertex 28.27 88 0
      vertex 28.0211 86.7486 12
    endloop
  endfacet
  facet normal -0.980785 0.19509 0
    outer loop
      vertex 28.0211 86.7486 12
      vertex 28.27 88 0
      vertex 28.0211 86.7486 0
    endloop
  endfacet
  facet normal -0.831469 0.55557 0
    outer loop
      vertex 28.0211 86.7486 12
      vertex 28.0211 86.7486 0
      vertex 27.3122 85.6878 12
    endloop
  endfacet
  facet normal -0.831469 0.55557 0
    outer loop
      vertex 27.3122 85.6878 12
      vertex 28.0211 86.7486 0
      vertex 27.3122 85.6878 0
    endloop
  endfacet
  facet normal -0.55557 0.831469 0
    outer loop
      vertex 27.3122 85.6878 12
      vertex 27.3122 85.6878 0
      vertex 26.2514 84.9789 12
    endloop
  endfacet
  facet normal -0.55557 0.831469 0
    outer loop
      vertex 26.2514 84.9789 12
      vertex 27.3122 85.6878 0
      vertex 26.2514 84.9789 0
    endloop
  endfacet
  facet normal -0.19509 0.980785 0
    outer loop
      vertex 26.2514 84.9789 12
      vertex 26.2514 84.9789 0
      vertex 25 84.73 12
    endloop
  endfacet
  facet normal -0.19509 0.980785 0
    outer loop
      vertex 25 84.73 12
      vertex 26.2514 84.9789 0
      vertex 25 84.73 0
    endloop
  endfacet
  facet normal 0.19509 0.980785 0
    outer loop
      vertex 25 84.73 12
      vertex 25 84.73 0
      vertex 23.7486 84.9789 12
    endloop
  endfacet
  facet normal 0.19509 0.980785 0
    outer loop
      vertex 23.7486 84.9789 12
      vertex 25 84.73 0
      vertex 23.7486 84.9789 0
    endloop
  endfacet
  facet normal 0.55557 0.831469 0
    outer loop
      vertex 23.7486 84.9789 12
      vertex 23.7486 84.9789 0
      vertex 22.6878 85.6878 12
    endloop
  endfacet
  facet normal 0.55557 0.831469 0
    outer loop
      vertex 22.6878 85.6878 12
      vertex 23.7486 84.9789 0
      vertex 22.6878 85.6878 0
    endloop
  endfacet
  facet normal 0.831469 0.55557 0
    outer loop
      vertex 21.9789 86.7486 12
      vertex 22.6878 85.6878 12
      vertex 22.6878 85.6878 0
    endloop
  endfacet
  facet normal 0.831469 0.55557 0
    outer loop
      vertex 21.9789 86.7486 0
      vertex 21.9789 86.7486 12
      vertex 22.6878 85.6878 0
    endloop
  endfacet
  facet normal 0.980785 0.19509 0
    outer loop
      vertex 21.73 88 12
      vertex 21.9789 86.7486 12
      vertex 21.9789 86.7486 0
    endloop
  endfacet
  facet normal 0.980785 0.19509 0
    outer loop
      vertex 21.73 88 0
      vertex 21.73 88 12
      vertex 21.9789 86.7486 0
    endloop
  endfacet
  facet normal 0.980785 -0.19509 0
    outer loop
      vertex 21.9789 89.2514 0
      vertex 21.9789 89.2514 12
      vertex 21.73 88 12
    endloop
  endfacet
  facet normal 0.980785 -0.19509 0
    outer loop
      vertex 21.73 88 0
      vertex 21.9789 89.2514 0
      vertex 21.73 88 12
    endloop
  endfacet
  facet normal 0.831469 -0.55557 0
    outer loop
      vertex 22.6878 90.3122 0
      vertex 22.6878 90.3122 12
      vertex 21.9789 89.2514 12
    endloop
  endfacet
  facet normal 0.831469 -0.55557 0
    outer loop
      vertex 21.9789 89.2514 0
      vertex 22.6878 90.3122 0
      vertex 21.9789 89.2514 12
    endloop
  endfacet
  facet normal 0.55557 -0.831469 0
    outer loop
      vertex 23.7486 91.0211 0
      vertex 23.7486 91.0211 12
      vertex 22.6878 90.3122 12
    endloop
  endfacet
  facet normal 0.55557 -0.831469 0
    outer loop
      vertex 22.6878 90.3122 0
      vertex 23.7486 91.0211 0
      vertex 22.6878 90.3122 12
    endloop
  endfacet
  facet normal 0.19509 -0.980785 0
    outer loop
      vertex 24 91.0711 0
      vertex 24 91.0711 12
      vertex 23.7486 91.0211 12
    endloop
  endfacet
  facet normal 0.19509 -0.980785 0
    outer loop
      vertex 23.7486 91.0211 0
      vertex 24 91.0711 0
      vertex 23.7486 91.0211 12
    endloop
  endfacet
  facet normal 1 0 0
    outer loop
      vertex 24 94.6927 7.67222
      vertex 24 100 12
      vertex 24 91.0711 12
    endloop
  endfacet
  facet normal 1 0 0
    outer loop
      vertex 24 95.6722 6.69266
      vertex 24 95.81 6
      vertex 24 100 0
    endloop
  endfacet
  facet normal 1 0 0
    outer loop
      vertex 24 91.0711 0
      vertex 24 92.19 6
      vertex 24 91.0711 12
    endloop
  endfacet
  facet normal 1 0 0
    outer loop
      vertex 24 92.19 6
      vertex 24 92.3278 6.69266
      vertex 24 91.0711 12
    endloop
  endfacet
  facet normal 1 0 0
    outer loop
      vertex 24 92.3278 6.69266
      vertex 24 92.7201 7.27986
      vertex 24 91.0711 12
    endloop
  endfacet
  facet normal 1 0 0
    outer loop
      vertex 24 92.7201 7.27986
      vertex 24 93.3073 7.67222
      vertex 24 91.0711 12
    endloop
  endfacet
  facet normal 1 0 0
    outer loop
      vertex 24 95.2799 4.72014
      vertex 24 94.6927 4.32778
      vertex 24 100 0
    endloop
  endfacet
  facet normal 1 0 0
    outer loop
      vertex 24 93.3073 7.67222
      vertex 24 94 7.81
      vertex 24 91.0711 12
    endloop
  endfacet
  facet normal 1 0 0
    outer loop
      vertex 24 95.2799 7.27986
      vertex 24 100 12
      vertex 24 94.6927 7.67222
    endloop
  endfacet
  facet normal 1 0 0
    outer loop
      vertex 24 95.81 6
      vertex 24 95.6722 5.30734
      vertex 24 100 0
    endloop
  endfacet
  facet normal 1 0 0
    outer loop
      vertex 24 95.6722 6.69266
      vertex 24 100 12
      vertex 24 95.2799 7.27986
    endloop
  endfacet
  facet normal 1 0 0
    outer loop
      vertex 24 95.6722 5.30734
      vertex 24 95.2799 4.72014
      vertex 24 100 0
    endloop
  endfacet
  facet normal 1 0 0
    outer loop
      vertex 24 100 0
      vertex 24 100 12
      vertex 24 95.6722 6.69266
    endloop
  endfacet
  facet normal 1 0 0
    outer loop
      vertex 24 94.6927 4.32778
      vertex 24 94 4.19
      vertex 24 100 0
    endloop
  endfacet
  facet normal 1 0 0
    outer loop
      vertex 24 91.0711 0
      vertex 24 100 0
      vertex 24 94 4.19
    endloop
  endfacet
  facet normal 1 0 0
    outer loop
      vertex 24 91.0711 0
      vertex 24 94 4.19
      vertex 24 93.3073 4.32778
    endloop
  endfacet
  facet normal 1 0 0
    outer loop
      vertex 24 91.0711 0
      vertex 24 93.3073 4.32778
      vertex 24 92.7201 4.72014
    endloop
  endfacet
  facet normal 1 0 0
    outer loop
      vertex 24 91.0711 0
      vertex 24 92.3278 5.30734
      vertex 24 92.19 6
    endloop
  endfacet
  facet normal 1 0 0
    outer loop
      vertex 24 91.0711 0
      vertex 24 92.7201 4.72014
      vertex 24 92.3278 5.30734
    endloop
  endfacet
  facet normal 1 0 0
    outer loop
      vertex 24 94 7.81
      vertex 24 94.6927 7.67222
      vertex 24 91.0711 12
    endloop
  endfacet
  facet normal 0 1 0
    outer loop
      vertex 15 100 0
      vertex 15 100 12
      vertex 24 100 0
    endloop
  endfacet
  facet normal 0 1 0
    outer loop
      vertex 24 100 0
      vertex 15 100 12
      vertex 24 100 12
    endloop
  endfacet
  facet normal -1 0 0
    outer loop
      vertex 15 8 0
      vertex 15 8 12
      vertex 15 100 0
    endloop
  endfacet
  facet normal -1 0 0
    outer loop
      vertex 15 94 7.81
      vertex 15 8 12
      vertex 15 100 12
    endloop
  endfacet
  facet normal -1 0 0
    outer loop
      vertex 15 92.3278 5.30734
      vertex 15 8 12
      vertex 15 92.19 6
    endloop
  endfacet
  facet normal -1 0 0
    outer loop
      vertex 15 92.7201 4.72014
      vertex 15 8 12
      vertex 15 92.3278 5.30734
    endloop
  endfacet
  facet normal -1 0 0
    outer loop
      vertex 15 93.3073 4.32778
      vertex 15 8 12
      vertex 15 92.7201 4.72014
    endloop
  endfacet
  facet normal -1 0 0
    outer loop
      vertex 15 100 0
      vertex 15 8 12
      vertex 15 93.3073 4.32778
    endloop
  endfacet
  facet normal -1 0 0
    outer loop
      vertex 15 94.6927 4.32778
      vertex 15 100 0
      vertex 15 94 4.19
    endloop
  endfacet
  facet normal -1 0 0
    outer loop
      vertex 15 95.81 6
      vertex 15 100 12
      vertex 15 95.6722 5.30734
    endloop
  endfacet
  facet normal -1 0 0
    outer loop
      vertex 15 100 0
      vertex 15 94.6927 4.32778
      vertex 15 95.2799 4.72014
    endloop
  endfacet
  facet normal -1 0 0
    outer loop
      vertex 15 100 0
      vertex 15 95.2799 4.72014
      vertex 15 95.6722 5.30734
    endloop
  endfacet
  facet normal -1 0 0
    outer loop
      vertex 15 100 0
      vertex 15 95.6722 5.30734
      vertex 15 100 12
    endloop
  endfacet
  facet normal -1 0 0
    outer loop
      vertex 15 94 7.81
      vertex 15 100 12
      vertex 15 94.6927 7.67222
    endloop
  endfacet
  facet normal -1 0 0
    outer loop
      vertex 15 95.81 6
      vertex 15 95.6722 6.69266
      vertex 15 100 12
    endloop
  endfacet
  facet normal -1 0 0
    outer loop
      vertex 15 95.6722 6.69266
      vertex 15 95.2799 7.27986
      vertex 15 100 12
    endloop
  endfacet
  facet normal -1 0 0
    outer loop
      vertex 15 95.2799 7.27986
      vertex 15 94.6927 7.67222
      vertex 15 100 12
    endloop
  endfacet
  facet normal -1 0 0
    outer loop
      vertex 15 93.3073 7.67222
      vertex 15 8 12
      vertex 15 94 7.81
    endloop
  endfacet
  facet normal -1 0 0
    outer loop
      vertex 15 92.7201 7.27986
      vertex 15 8 12
      vertex 15 93.3073 7.67222
    endloop
  endfacet
  facet normal -1 0 0
    outer loop
      vertex 15 92.3278 6.69266
      vertex 15 8 12
      vertex 15 92.7201 7.27986
    endloop
  endfacet
  facet normal -1 0 0
    outer loop
      vertex 15 92.19 6
      vertex 15 8 12
      vertex 15 92.3278 6.69266
    endloop
  endfacet
  facet normal -1 0 0
    outer loop
      vertex 15 94 4.19
      vertex 15 100 0
      vertex 15 93.3073 4.32778
    endloop
  endfacet
  facet normal 0.980785 -0.19509 0
    outer loop
      vertex 23.0709 22.8701 0
      vertex 23.0709 22.8701 12
      vertex 22.5 20 12
    endloop
  endfacet
  facet normal 0.980785 -0.19509 0
    outer loop
      vertex 22.5 20 0
      vertex 23.0709 22.8701 0
      vertex 22.5 20 12
    endloop
  endfacet
  facet normal 0.980785 0.19509 0
    outer loop
      vertex 22.5 20 12
      vertex 23.0709 17.1299 12
      vertex 23.0709 17.1299 0
    endloop
  endfacet
  facet normal 0.980785 0.19509 0
    outer loop
      vertex 22.5 20 0
      vertex 22.5 20 12
      vertex 23.0709 17.1299 0
    endloop
  endfacet
  facet normal 0.83147 -0.55557 0
    outer loop
      vertex 24.6967 25.3033 0
      vertex 24.6967 25.3033 12
      vertex 23.0709 22.8701 12
    endloop
  endfacet
  facet normal 0.83147 -0.55557 0
    outer loop
      vertex 23.0709 22.8701 0
      vertex 24.6967 25.3033 0
      vertex 23.0709 22.8701 12
    endloop
  endfacet
  facet normal 0.55557 -0.83147 0
    outer loop
      vertex 27.1299 26.9291 0
      vertex 27.1299 26.9291 12
      vertex 24.6967 25.3033 12
    endloop
  endfacet
  facet normal 0.55557 -0.83147 0
    outer loop
      vertex 24.6967 25.3033 0
      vertex 27.1299 26.9291 0
      vertex 24.6967 25.3033 12
    endloop
  endfacet
  facet normal 0.19509 -0.980785 0
    outer loop
      vertex 30 27.5 0
      vertex 30 27.5 12
      vertex 27.1299 26.9291 12
    endloop
  endfacet
  facet normal 0.19509 -0.980785 0
    outer loop
      vertex 27.1299 26.9291 0
      vertex 30 27.5 0
      vertex 27.1299 26.9291 12
    endloop
  endfacet
  facet normal -0.19509 -0.980785 0
    outer loop
      vertex 32.8701 26.9291 0
      vertex 32.8701 26.9291 12
      vertex 30 27.5 12
    endloop
  endfacet
  facet normal -0.19509 -0.980785 0
    outer loop
      vertex 30 27.5 0
      vertex 32.8701 26.9291 0
      vertex 30 27.5 12
    endloop
  endfacet
  facet normal -0.55557 -0.83147 0
    outer loop
      vertex 35.3033 25.3033 0
      vertex 35.3033 25.3033 12
      vertex 32.8701 26.9291 12
    endloop
  endfacet
  facet normal -0.55557 -0.83147 0
    outer loop
      vertex 32.8701 26.9291 0
      vertex 35.3033 25.3033 0
      vertex 32.8701 26.9291 12
    endloop
  endfacet
  facet normal -0.83147 -0.55557 0
    outer loop
      vertex 36.9291 22.8701 12
      vertex 35.3033 25.3033 12
      vertex 36.9291 22.8701 0
    endloop
  endfacet
  facet normal -0.83147 -0.55557 0
    outer loop
      vertex 36.9291 22.8701 0
      vertex 35.3033 25.3033 12
      vertex 35.3033 25.3033 0
    endloop
  endfacet
  facet normal -0.980785 -0.19509 0
    outer loop
      vertex 37.5 20 12
      vertex 36.9291 22.8701 12
      vertex 37.5 20 0
    endloop
  endfacet
  facet normal -0.980785 -0.19509 0
    outer loop
      vertex 37.5 20 0
      vertex 36.9291 22.8701 12
      vertex 36.9291 22.8701 0
    endloop
  endfacet
  facet normal -0.980785 0.19509 0
    outer loop
      vertex 37.5 20 12
      vertex 37.5 20 0
      vertex 36.9291 17.1299 12
    endloop
  endfacet
  facet normal -0.980785 0.19509 0
    outer loop
      vertex 36.9291 17.1299 12
      vertex 37.5 20 0
      vertex 36.9291 17.1299 0
    endloop
  endfacet
  facet normal -0.83147 0.55557 0
    outer loop
      vertex 36.9291 17.1299 12
      vertex 36.9291 17.1299 0
      vertex 35.3033 14.6967 12
    endloop
  endfacet
  facet normal -0.83147 0.55557 0
    outer loop
      vertex 35.3033 14.6967 12
      vertex 36.9291 17.1299 0
      vertex 35.3033 14.6967 0
    endloop
  endfacet
  facet normal -0.55557 0.83147 0
    outer loop
      vertex 35.3033 14.6967 12
      vertex 35.3033 14.6967 0
      vertex 32.8701 13.0709 12
    endloop
  endfacet
  facet normal -0.55557 0.83147 0
    outer loop
      vertex 32.8701 13.0709 12
      vertex 35.3033 14.6967 0
      vertex 32.8701 13.0709 0
    endloop
  endfacet
  facet normal -0.19509 0.980785 0
    outer loop
      vertex 32.8701 13.0709 12
      vertex 32.8701 13.0709 0
      vertex 30 12.5 12
    endloop
  endfacet
  facet normal -0.19509 0.980785 0
    outer loop
      vertex 30 12.5 12
      vertex 32.8701 13.0709 0
      vertex 30 12.5 0
    endloop
  endfacet
  facet normal 0.19509 0.980785 0
    outer loop
      vertex 30 12.5 12
      vertex 30 12.5 0
      vertex 27.1299 13.0709 12
    endloop
  endfacet
  facet normal 0.19509 0.980785 0
    outer loop
      vertex 27.1299 13.0709 12
      vertex 30 12.5 0
      vertex 27.1299 13.0709 0
    endloop
  endfacet
  facet normal 0.55557 0.83147 0
    outer loop
      vertex 27.1299 13.0709 12
      vertex 27.1299 13.0709 0
      vertex 24.6967 14.6967 12
    endloop
  endfacet
  facet normal 0.55557 0.83147 0
    outer loop
      vertex 24.6967 14.6967 12
      vertex 27.1299 13.0709 0
      vertex 24.6967 14.6967 0
    endloop
  endfacet
  facet normal 0.83147 0.55557 0
    outer loop
      vertex 23.0709 17.1299 12
      vertex 24.6967 14.6967 12
      vertex 24.6967 14.6967 0
    endloop
  endfacet
  facet normal 0.83147 0.55557 0
    outer loop
      vertex 23.0709 17.1299 0
      vertex 23.0709 17.1299 12
      vertex 24.6967 14.6967 0
    endloop
  endfacet
  facet normal 0.980785 -0.19509 0
    outer loop
      vertex 23.0709 47.8701 0
      vertex 23.0709 47.8701 12
      vertex 22.5 45 12
    endloop
  endfacet
  facet normal 0.980785 -0.19509 0
    outer loop
      vertex 22.5 45 0
      vertex 23.0709 47.8701 0
      vertex 22.5 45 12
    endloop
  endfacet
  facet normal 0.980785 0.19509 0
    outer loop
      vertex 22.5 45 12
      vertex 23.0709 42.1299 12
      vertex 23.0709 42.1299 0
    endloop
  endfacet
  facet normal 0.980785 0.19509 0
    outer loop
      vertex 22.5 45 0
      vertex 22.5 45 12
      vertex 23.0709 42.1299 0
    endloop
  endfacet
  facet normal 0.83147 -0.55557 0
    outer loop
      vertex 24.6967 50.3033 0
      vertex 24.6967 50.3033 12
      vertex 23.0709 47.8701 12
    endloop
  endfacet
  facet normal 0.83147 -0.55557 0
    outer loop
      vertex 23.0709 47.8701 0
      vertex 24.6967 50.3033 0
      vertex 23.0709 47.8701 12
    endloop
  endfacet
  facet normal 0.55557 -0.83147 0
    outer loop
      vertex 27.1299 51.9291 0
      vertex 27.1299 51.9291 12
      vertex 24.6967 50.3033 12
    endloop
  endfacet
  facet normal 0.55557 -0.83147 0
    outer loop
      vertex 24.6967 50.3033 0
      vertex 27.1299 51.9291 0
      vertex 24.6967 50.3033 12
    endloop
  endfacet
  facet normal 0.19509 -0.980785 0
    outer loop
      vertex 30 52.5 0
      vertex 30 52.5 12
      vertex 27.1299 51.9291 12
    endloop
  endfacet
  facet normal 0.19509 -0.980785 0
    outer loop
      vertex 27.1299 51.9291 0
      vertex 30 52.5 0
      vertex 27.1299 51.9291 12
    endloop
  endfacet
  facet normal -0.19509 -0.980785 0
    outer loop
      vertex 32.8701 51.9291 0
      vertex 32.8701 51.9291 12
      vertex 30 52.5 12
    endloop
  endfacet
  facet normal -0.19509 -0.980785 0
    outer loop
      vertex 30 52.5 0
      vertex 32.8701 51.9291 0
      vertex 30 52.5 12
    endloop
  endfacet
  facet normal -0.55557 -0.83147 0
    outer loop
      vertex 35.3033 50.3033 0
      vertex 35.3033 50.3033 12
      vertex 32.8701 51.9291 12
    endloop
  endfacet
  facet normal -0.55557 -0.83147 0
    outer loop
      vertex 32.8701 51.9291 0
      vertex 35.3033 50.3033 0
      vertex 32.8701 51.9291 12
    endloop
  endfacet
  facet normal -0.83147 -0.55557 0
    outer loop
      vertex 36.9291 47.8701 12
      vertex 35.3033 50.3033 12
      vertex 36.9291 47.8701 0
    endloop
  endfacet
  facet normal -0.83147 -0.55557 0
    outer loop
      vertex 36.9291 47.8701 0
      vertex 35.3033 50.3033 12
      vertex 35.3033 50.3033 0
    endloop
  endfacet
  facet normal -0.980785 -0.19509 0
    outer loop
      vertex 37.5 45 12
      vertex 36.9291 47.8701 12
      vertex 37.5 45 0
    endloop
  endfacet
  facet normal -0.980785 -0.19509 0
    outer loop
      vertex 37.5 45 0
      vertex 36.9291 47.8701 12
      vertex 36.9291 47.8701 0
    endloop
  endfacet
  facet normal -0.980785 0.19509 0
    outer loop
      vertex 37.5 45 12
      vertex 37.5 45 0
      vertex 36.9291 42.1299 12
    endloop
  endfacet
  facet normal -0.980785 0.19509 0
    outer loop
      vertex 36.9291 42.1299 12
      vertex 37.5 45 0
      vertex 36.9291 42.1299 0
    endloop
  endfacet
  facet normal -0.83147 0.55557 0
    outer loop
      vertex 36.9291 42.1299 12
      vertex 36.9291 42.1299 0
      vertex 35.3033 39.6967 12
    endloop
  endfacet
  facet normal -0.83147 0.55557 0
    outer loop
      vertex 35.3033 39.6967 12
      vertex 36.9291 42.1299 0
      vertex 35.3033 39.6967 0
    endloop
  endfacet
  facet normal -0.55557 0.83147 0
    outer loop
      vertex 35.3033 39.6967 12
      vertex 35.3033 39.6967 0
      vertex 32.8701 38.0709 12
    endloop
  endfacet
  facet normal -0.55557 0.83147 0
    outer loop
      vertex 32.8701 38.0709 12
      vertex 35.3033 39.6967 0
      vertex 32.8701 38.0709 0
    endloop
  endfacet
  facet normal -0.19509 0.980785 0
    outer loop
      vertex 32.8701 38.0709 12
      vertex 32.8701 38.0709 0
      vertex 30 37.5 12
    endloop
  endfacet
  facet normal -0.19509 0.980785 0
    outer loop
      vertex 30 37.5 12
      vertex 32.8701 38.0709 0
      vertex 30 37.5 0
    endloop
  endfacet
  facet normal 0.19509 0.980785 0
    outer loop
      vertex 30 37.5 12
      vertex 30 37.5 0
      vertex 27.1299 38.0709 12
    endloop
  endfacet
  facet normal 0.19509 0.980785 0
    outer loop
      vertex 27.1299 38.0709 12
      vertex 30 37.5 0
      vertex 27.1299 38.0709 0
    endloop
  endfacet
  facet normal 0.55557 0.83147 0
    outer loop
      vertex 27.1299 38.0709 12
      vertex 27.1299 38.0709 0
      vertex 24.6967 39.6967 12
    endloop
  endfacet
  facet normal 0.55557 0.83147 0
    outer loop
      vertex 24.6967 39.6967 12
      vertex 27.1299 38.0709 0
      vertex 24.6967 39.6967 0
    endloop
  endfacet
  facet normal 0.83147 0.55557 0
    outer loop
      vertex 23.0709 42.1299 12
      vertex 24.6967 39.6967 12
      vertex 24.6967 39.6967 0
    endloop
  endfacet
  facet normal 0.83147 0.55557 0
    outer loop
      vertex 23.0709 42.1299 0
      vertex 23.0709 42.1299 12
      vertex 24.6967 39.6967 0
    endloop
  endfacet
  facet normal 0.980785 -0.19509 0
    outer loop
      vertex 23.0709 72.8701 0
      vertex 23.0709 72.8701 12
      vertex 22.5 70 12
    endloop
  endfacet
  facet normal 0.980785 -0.19509 0
    outer loop
      vertex 22.5 70 0
      vertex 23.0709 72.8701 0
      vertex 22.5 70 12
    endloop
  endfacet
  facet normal 0.980785 0.19509 0
    outer loop
      vertex 22.5 70 12
      vertex 23.0709 67.1299 12
      vertex 23.0709 67.1299 0
    endloop
  endfacet
  facet normal 0.980785 0.19509 0
    outer loop
      vertex 22.5 70 0
      vertex 22.5 70 12
      vertex 23.0709 67.1299 0
    endloop
  endfacet
  facet normal 0.83147 -0.55557 0
    outer loop
      vertex 24.6967 75.3033 0
      vertex 24.6967 75.3033 12
      vertex 23.0709 72.8701 12
    endloop
  endfacet
  facet normal 0.83147 -0.55557 0
    outer loop
      vertex 23.0709 72.8701 0
      vertex 24.6967 75.3033 0
      vertex 23.0709 72.8701 12
    endloop
  endfacet
  facet normal 0.55557 -0.83147 0
    outer loop
      vertex 27.1299 76.9291 0
      vertex 27.1299 76.9291 12
      vertex 24.6967 75.3033 12
    endloop
  endfacet
  facet normal 0.55557 -0.83147 0
    outer loop
      vertex 24.6967 75.3033 0
      vertex 27.1299 76.9291 0
      vertex 24.6967 75.3033 12
    endloop
  endfacet
  facet normal 0.19509 -0.980785 0
    outer loop
      vertex 30 77.5 0
      vertex 30 77.5 12
      vertex 27.1299 76.9291 12
    endloop
  endfacet
  facet normal 0.19509 -0.980785 0
    outer loop
      vertex 27.1299 76.9291 0
      vertex 30 77.5 0
      vertex 27.1299 76.9291 12
    endloop
  endfacet
  facet normal -0.19509 -0.980785 0
    outer loop
      vertex 32.8701 76.9291 0
      vertex 32.8701 76.9291 12
      vertex 30 77.5 12
    endloop
  endfacet
  facet normal -0.19509 -0.980785 0
    outer loop
      vertex 30 77.5 0
      vertex 32.8701 76.9291 0
      vertex 30 77.5 12
    endloop
  endfacet
  facet normal -0.55557 -0.83147 0
    outer loop
      vertex 35.3033 75.3033 0
      vertex 35.3033 75.3033 12
      vertex 32.8701 76.9291 12
    endloop
  endfacet
  facet normal -0.55557 -0.83147 0
    outer loop
      vertex 32.8701 76.9291 0
      vertex 35.3033 75.3033 0
      vertex 32.8701 76.9291 12
    endloop
  endfacet
  facet normal -0.83147 -0.55557 0
    outer loop
      vertex 36.9291 72.8701 12
      vertex 35.3033 75.3033 12
      vertex 36.9291 72.8701 0
    endloop
  endfacet
  facet normal -0.83147 -0.55557 0
    outer loop
      vertex 36.9291 72.8701 0
      vertex 35.3033 75.3033 12
      vertex 35.3033 75.3033 0
    endloop
  endfacet
  facet normal -0.980785 -0.19509 0
    outer loop
      vertex 37.5 70 12
      vertex 36.9291 72.8701 12
      vertex 37.5 70 0
    endloop
  endfacet
  facet normal -0.980785 -0.19509 0
    outer loop
      vertex 37.5 70 0
      vertex 36.9291 72.8701 12
      vertex 36.9291 72.8701 0
    endloop
  endfacet
  facet normal -0.980785 0.19509 0
    outer loop
      vertex 37.5 70 12
      vertex 37.5 70 0
      vertex 36.9291 67.1299 12
    endloop
  endfacet
  facet normal -0.980785 0.19509 0
    outer loop
      vertex 36.9291 67.1299 12
      vertex 37.5 70 0
      vertex 36.9291 67.1299 0
    endloop
  endfacet
  facet normal -0.83147 0.55557 0
    outer loop
      vertex 36.9291 67.1299 12
      vertex 36.9291 67.1299 0
      vertex 35.3033 64.6967 12
    endloop
  endfacet
  facet normal -0.83147 0.55557 0
    outer loop
      vertex 35.3033 64.6967 12
      vertex 36.9291 67.1299 0
      vertex 35.3033 64.6967 0
    endloop
  endfacet
  facet normal -0.55557 0.83147 0
    outer loop
      vertex 35.3033 64.6967 12
      vertex 35.3033 64.6967 0
      vertex 32.8701 63.0709 12
    endloop
  endfacet
  facet normal -0.55557 0.83147 0
    outer loop
      vertex 32.8701 63.0709 12
      vertex 35.3033 64.6967 0
      vertex 32.8701 63.0709 0
    endloop
  endfacet
  facet normal -0.19509 0.980785 0
    outer loop
      vertex 32.8701 63.0709 12
      vertex 32.8701 63.0709 0
      vertex 30 62.5 12
    endloop
  endfacet
  facet normal -0.19509 0.980785 0
    outer loop
      vertex 30 62.5 12
      vertex 32.8701 63.0709 0
      vertex 30 62.5 0
    endloop
  endfacet
  facet normal 0.19509 0.980785 0
    outer loop
      vertex 30 62.5 12
      vertex 30 62.5 0
      vertex 27.1299 63.0709 12
    endloop
  endfacet
  facet normal 0.19509 0.980785 0
    outer loop
      vertex 27.1299 63.0709 12
      vertex 30 62.5 0
      vertex 27.1299 63.0709 0
    endloop
  endfacet
  facet normal 0.55557 0.83147 0
    outer loop
      vertex 27.1299 63.0709 12
      vertex 27.1299 63.0709 0
      vertex 24.6967 64.6967 12
    endloop
  endfacet
  facet normal 0.55557 0.83147 0
    outer loop
      vertex 24.6967 64.6967 12
      vertex 27.1299 63.0709 0
      vertex 24.6967 64.6967 0
    endloop
  endfacet
  facet normal 0.83147 0.55557 0
    outer loop
      vertex 23.0709 67.1299 12
      vertex 24.6967 64.6967 12
      vertex 24.6967 64.6967 0
    endloop
  endfacet
  facet normal 0.83147 0.55557 0
    outer loop
      vertex 23.0709 67.1299 0
      vertex 23.0709 67.1299 12
      vertex 24.6967 64.6967 0
    endloop
  endfacet
  facet normal 0.831469 -1.23361e-016 -0.555571
    outer loop
      vertex 5.82778 8 6.69266
      vertex 6.22014 8 7.27986
      vertex 6.22014 2.84187e-016 7.27986
    endloop
  endfacet
  facet normal 0.831469 -1.23361e-016 -0.555571
    outer loop
      vertex 5.82778 1.53801e-016 6.69266
      vertex 5.82778 8 6.69266
      vertex 6.22014 2.84187e-016 7.27986
    endloop
  endfacet
  facet normal 0.555571 -1.84623e-016 -0.831469
    outer loop
      vertex 6.80734 8 7.67222
      vertex 6.80734 3.71308e-016 7.67222
      vertex 6.22014 8 7.27986
    endloop
  endfacet
  facet normal 0.555571 -1.84623e-016 -0.831469
    outer loop
      vertex 6.22014 8 7.27986
      vertex 6.80734 3.71308e-016 7.67222
      vertex 6.22014 2.84187e-016 7.27986
    endloop
  endfacet
  facet normal 0.19509 -2.17778e-016 -0.980785
    outer loop
      vertex 7.5 8 7.81
      vertex 7.5 4.01901e-016 7.81
      vertex 6.80734 8 7.67222
    endloop
  endfacet
  facet normal 0.19509 -2.17778e-016 -0.980785
    outer loop
      vertex 6.80734 8 7.67222
      vertex 7.5 4.01901e-016 7.81
      vertex 6.80734 3.71308e-016 7.67222
    endloop
  endfacet
  facet normal -0.19509 -2.17778e-016 -0.980785
    outer loop
      vertex 8.19266 8 7.67222
      vertex 8.19266 3.71308e-016 7.67222
      vertex 7.5 8 7.81
    endloop
  endfacet
  facet normal -0.19509 -2.17778e-016 -0.980785
    outer loop
      vertex 7.5 8 7.81
      vertex 8.19266 3.71308e-016 7.67222
      vertex 7.5 4.01901e-016 7.81
    endloop
  endfacet
  facet normal -0.555571 -1.84623e-016 -0.831469
    outer loop
      vertex 8.77986 8 7.27986
      vertex 8.77986 2.84187e-016 7.27986
      vertex 8.19266 8 7.67222
    endloop
  endfacet
  facet normal -0.555571 -1.84623e-016 -0.831469
    outer loop
      vertex 8.19266 8 7.67222
      vertex 8.77986 2.84187e-016 7.27986
      vertex 8.19266 3.71308e-016 7.67222
    endloop
  endfacet
  facet normal -0.831469 -1.23361e-016 -0.555571
    outer loop
      vertex 9.17222 8 6.69266
      vertex 9.17222 1.53801e-016 6.69266
      vertex 8.77986 8 7.27986
    endloop
  endfacet
  facet normal -0.831469 -1.23361e-016 -0.555571
    outer loop
      vertex 8.77986 8 7.27986
      vertex 9.17222 1.53801e-016 6.69266
      vertex 8.77986 2.84187e-016 7.27986
    endloop
  endfacet
  facet normal 0 -1 2.22045e-016
    outer loop
      vertex 5.82778 8 5.30734
      vertex 6.22014 8 4.72014
      vertex 6.80734 8 4.32778
    endloop
  endfacet
  facet normal 0 -1 2.22045e-016
    outer loop
      vertex 8.19266 8 4.32778
      vertex 5.82778 8 5.30734
      vertex 7.5 8 4.19
    endloop
  endfacet
  facet normal 0 -1 2.22045e-016
    outer loop
      vertex 7.5 8 4.19
      vertex 5.82778 8 5.30734
      vertex 6.80734 8 4.32778
    endloop
  endfacet
  facet normal 0 -1 2.22045e-016
    outer loop
      vertex 8.77986 8 4.72014
      vertex 5.82778 8 5.30734
      vertex 8.19266 8 4.32778
    endloop
  endfacet
  facet normal 0 -1 2.22045e-016
    outer loop
      vertex 9.17222 8 5.30734
      vertex 5.82778 8 5.30734
      vertex 8.77986 8 4.72014
    endloop
  endfacet
  facet normal 0 -1 2.22045e-016
    outer loop
      vertex 9.31 8 6
      vertex 5.82778 8 5.30734
      vertex 9.17222 8 5.30734
    endloop
  endfacet
  facet normal 0 -1 2.22045e-016
    outer loop
      vertex 5.69 8 6
      vertex 5.82778 8 5.30734
      vertex 9.31 8 6
    endloop
  endfacet
  facet normal 0 -1 2.22045e-016
    outer loop
      vertex 50.8278 8 5.30734
      vertex 51.2201 8 4.72014
      vertex 51.8073 8 4.32778
    endloop
  endfacet
  facet normal 0 -1 2.22045e-016
    outer loop
      vertex 53.1927 8 4.32778
      vertex 50.8278 8 5.30734
      vertex 52.5 8 4.19
    endloop
  endfacet
  facet normal 0 -1 2.22045e-016
    outer loop
      vertex 52.5 8 4.19
      vertex 50.8278 8 5.30734
      vertex 51.8073 8 4.32778
    endloop
  endfacet
  facet normal 0 -1 2.22045e-016
    outer loop
      vertex 53.7799 8 4.72014
      vertex 50.8278 8 5.30734
      vertex 53.1927 8 4.32778
    endloop
  endfacet
  facet normal 0 -1 2.22045e-016
    outer loop
      vertex 54.1722 8 5.30734
      vertex 50.8278 8 5.30734
      vertex 53.7799 8 4.72014
    endloop
  endfacet
  facet normal 0 -1 2.22045e-016
    outer loop
      vertex 54.31 8 6
      vertex 50.8278 8 5.30734
      vertex 54.1722 8 5.30734
    endloop
  endfacet
  facet normal 0 -1 2.22045e-016
    outer loop
      vertex 50.69 8 6
      vertex 50.8278 8 5.30734
      vertex 54.31 8 6
    endloop
  endfacet
  facet normal 0.831469 -1.23361e-016 -0.555571
    outer loop
      vertex 50.8278 8 6.69266
      vertex 51.2201 8 7.27986
      vertex 51.2201 2.84187e-016 7.27986
    endloop
  endfacet
  facet normal 0.831469 -1.23361e-016 -0.555571
    outer loop
      vertex 50.8278 1.53801e-016 6.69266
      vertex 50.8278 8 6.69266
      vertex 51.2201 2.84187e-016 7.27986
    endloop
  endfacet
  facet normal -0.831469 -1.23361e-016 -0.555571
    outer loop
      vertex 54.1722 8 6.69266
      vertex 54.1722 1.53801e-016 6.69266
      vertex 53.7799 8 7.27986
    endloop
  endfacet
  facet normal -0.831469 -1.23361e-016 -0.555571
    outer loop
      vertex 53.7799 8 7.27986
      vertex 54.1722 1.53801e-016 6.69266
      vertex 53.7799 2.84187e-016 7.27986
    endloop
  endfacet
  facet normal -0.555571 -1.84623e-016 -0.831469
    outer loop
      vertex 53.7799 8 7.27986
      vertex 53.7799 2.84187e-016 7.27986
      vertex 53.1927 8 7.67222
    endloop
  endfacet
  facet normal -0.555571 -1.84623e-016 -0.831469
    outer loop
      vertex 53.1927 8 7.67222
      vertex 53.7799 2.84187e-016 7.27986
      vertex 53.1927 3.71308e-016 7.67222
    endloop
  endfacet
  facet normal -0.19509 -2.17778e-016 -0.980785
    outer loop
      vertex 53.1927 8 7.67222
      vertex 53.1927 3.71308e-016 7.67222
      vertex 52.5 8 7.81
    endloop
  endfacet
  facet normal -0.19509 -2.17778e-016 -0.980785
    outer loop
      vertex 52.5 8 7.81
      vertex 53.1927 3.71308e-016 7.67222
      vertex 52.5 4.01901e-016 7.81
    endloop
  endfacet
  facet normal 0.19509 -2.17778e-016 -0.980785
    outer loop
      vertex 52.5 8 7.81
      vertex 52.5 4.01901e-016 7.81
      vertex 51.8073 8 7.67222
    endloop
  endfacet
  facet normal 0.19509 -2.17778e-016 -0.980785
    outer loop
      vertex 51.8073 8 7.67222
      vertex 52.5 4.01901e-016 7.81
      vertex 51.8073 3.71308e-016 7.67222
    endloop
  endfacet
  facet normal 0.555571 -1.84623e-016 -0.831469
    outer loop
      vertex 51.8073 8 7.67222
      vertex 51.8073 3.71308e-016 7.67222
      vertex 51.2201 8 7.27986
    endloop
  endfacet
  facet normal 0.555571 -1.84623e-016 -0.831469
    outer loop
      vertex 51.2201 8 7.27986
      vertex 51.8073 3.71308e-016 7.67222
      vertex 51.2201 2.84187e-016 7.27986
    endloop
  endfacet
  facet normal -1.23361e-016 0.831469 0.555571
    outer loop
      vertex 30 92.7201 4.72014
      vertex 26 92.7201 4.72014
      vertex 30 92.3278 5.30734
    endloop
  endfacet
  facet normal -1.23361e-016 0.831469 0.555571
    outer loop
      vertex 30 92.3278 5.30734
      vertex 26 92.7201 4.72014
      vertex 26 92.3278 5.30734
    endloop
  endfacet
  facet normal -4.33187e-017 0.980785 0.19509
    outer loop
      vertex 30 92.3278 5.30734
      vertex 26 92.3278 5.30734
      vertex 30 92.19 6
    endloop
  endfacet
  facet normal -4.33187e-017 0.980785 0.19509
    outer loop
      vertex 30 92.19 6
      vertex 26 92.3278 5.30734
      vertex 26 92.19 6
    endloop
  endfacet
  facet normal 4.33187e-017 0.980785 -0.19509
    outer loop
      vertex 30 92.3278 6.69266
      vertex 30 92.19 6
      vertex 26 92.3278 6.69266
    endloop
  endfacet
  facet normal 4.33187e-017 0.980785 -0.19509
    outer loop
      vertex 26 92.3278 6.69266
      vertex 30 92.19 6
      vertex 26 92.19 6
    endloop
  endfacet
  facet normal 1.23361e-016 0.831469 -0.555571
    outer loop
      vertex 30 92.7201 7.27986
      vertex 30 92.3278 6.69266
      vertex 26 92.7201 7.27986
    endloop
  endfacet
  facet normal 1.23361e-016 0.831469 -0.555571
    outer loop
      vertex 26 92.7201 7.27986
      vertex 30 92.3278 6.69266
      vertex 26 92.3278 6.69266
    endloop
  endfacet
  facet normal 1.84623e-016 0.555571 -0.831469
    outer loop
      vertex 30 93.3073 7.67222
      vertex 30 92.7201 7.27986
      vertex 26 93.3073 7.67222
    endloop
  endfacet
  facet normal 1.84623e-016 0.555571 -0.831469
    outer loop
      vertex 26 93.3073 7.67222
      vertex 30 92.7201 7.27986
      vertex 26 92.7201 7.27986
    endloop
  endfacet
  facet normal 2.17778e-016 0.19509 -0.980785
    outer loop
      vertex 30 94 7.81
      vertex 30 93.3073 7.67222
      vertex 26 94 7.81
    endloop
  endfacet
  facet normal 2.17778e-016 0.19509 -0.980785
    outer loop
      vertex 26 94 7.81
      vertex 30 93.3073 7.67222
      vertex 26 93.3073 7.67222
    endloop
  endfacet
  facet normal 2.17778e-016 -0.19509 -0.980785
    outer loop
      vertex 30 94.6927 7.67222
      vertex 30 94 7.81
      vertex 26 94.6927 7.67222
    endloop
  endfacet
  facet normal 2.17778e-016 -0.19509 -0.980785
    outer loop
      vertex 26 94.6927 7.67222
      vertex 30 94 7.81
      vertex 26 94 7.81
    endloop
  endfacet
  facet normal 1.84623e-016 -0.555571 -0.831469
    outer loop
      vertex 30 95.2799 7.27986
      vertex 30 94.6927 7.67222
      vertex 26 95.2799 7.27986
    endloop
  endfacet
  facet normal 1.84623e-016 -0.555571 -0.831469
    outer loop
      vertex 26 95.2799 7.27986
      vertex 30 94.6927 7.67222
      vertex 26 94.6927 7.67222
    endloop
  endfacet
  facet normal 1.23361e-016 -0.831469 -0.555571
    outer loop
      vertex 26 95.6722 6.69266
      vertex 30 95.6722 6.69266
      vertex 30 95.2799 7.27986
    endloop
  endfacet
  facet normal 1.23361e-016 -0.831469 -0.555571
    outer loop
      vertex 26 95.2799 7.27986
      vertex 26 95.6722 6.69266
      vertex 30 95.2799 7.27986
    endloop
  endfacet
  facet normal 4.33187e-017 -0.980785 -0.19509
    outer loop
      vertex 26 95.81 6
      vertex 30 95.81 6
      vertex 30 95.6722 6.69266
    endloop
  endfacet
  facet normal 4.33187e-017 -0.980785 -0.19509
    outer loop
      vertex 26 95.6722 6.69266
      vertex 26 95.81 6
      vertex 30 95.6722 6.69266
    endloop
  endfacet
  facet normal -4.33187e-017 -0.980785 0.19509
    outer loop
      vertex 30 95.6722 5.30734
      vertex 30 95.81 6
      vertex 26 95.81 6
    endloop
  endfacet
  facet normal -4.33187e-017 -0.980785 0.19509
    outer loop
      vertex 26 95.6722 5.30734
      vertex 30 95.6722 5.30734
      vertex 26 95.81 6
    endloop
  endfacet
  facet normal -1.23361e-016 -0.831469 0.555571
    outer loop
      vertex 30 95.2799 4.72014
      vertex 30 95.6722 5.30734
      vertex 26 95.6722 5.30734
    endloop
  endfacet
  facet normal -1.23361e-016 -0.831469 0.555571
    outer loop
      vertex 26 95.2799 4.72014
      vertex 30 95.2799 4.72014
      vertex 26 95.6722 5.30734
    endloop
  endfacet
  facet normal -1.84623e-016 -0.555571 0.831469
    outer loop
      vertex 30 94.6927 4.32778
      vertex 30 95.2799 4.72014
      vertex 26 95.2799 4.72014
    endloop
  endfacet
  facet normal -1.84623e-016 -0.555571 0.831469
    outer loop
      vertex 26 94.6927 4.32778
      vertex 30 94.6927 4.32778
      vertex 26 95.2799 4.72014
    endloop
  endfacet
  facet normal -2.17778e-016 -0.19509 0.980785
    outer loop
      vertex 30 94 4.19
      vertex 30 94.6927 4.32778
      vertex 26 94.6927 4.32778
    endloop
  endfacet
  facet normal -2.17778e-016 -0.19509 0.980785
    outer loop
      vertex 26 94 4.19
      vertex 30 94 4.19
      vertex 26 94.6927 4.32778
    endloop
  endfacet
  facet normal -2.17778e-016 0.19509 0.980785
    outer loop
      vertex 30 93.3073 4.32778
      vertex 30 94 4.19
      vertex 26 94 4.19
    endloop
  endfacet
  facet normal -2.17778e-016 0.19509 0.980785
    outer loop
      vertex 26 93.3073 4.32778
      vertex 30 93.3073 4.32778
      vertex 26 94 4.19
    endloop
  endfacet
  facet normal -1.84623e-016 0.555571 0.831469
    outer loop
      vertex 30 92.7201 4.72014
      vertex 30 93.3073 4.32778
      vertex 26 93.3073 4.32778
    endloop
  endfacet
  facet normal -1.84623e-016 0.555571 0.831469
    outer loop
      vertex 26 92.7201 4.72014
      vertex 30 92.7201 4.72014
      vertex 26 93.3073 4.32778
    endloop
  endfacet
  facet normal -4.33187e-017 0.980785 0.19509
    outer loop
      vertex 24 92.3278 5.30734
      vertex 15 92.3278 5.30734
      vertex 24 92.19 6
    endloop
  endfacet
  facet normal -4.33187e-017 0.980785 0.19509
    outer loop
      vertex 24 92.19 6
      vertex 15 92.3278 5.30734
      vertex 15 92.19 6
    endloop
  endfacet
  facet normal 4.33187e-017 0.980785 -0.19509
    outer loop
      vertex 24 92.3278 6.69266
      vertex 24 92.19 6
      vertex 15 92.3278 6.69266
    endloop
  endfacet
  facet normal 4.33187e-017 0.980785 -0.19509
    outer loop
      vertex 15 92.3278 6.69266
      vertex 24 92.19 6
      vertex 15 92.19 6
    endloop
  endfacet
  facet normal -1.23361e-016 0.831469 0.555571
    outer loop
      vertex 24 92.7201 4.72014
      vertex 15 92.7201 4.72014
      vertex 24 92.3278 5.30734
    endloop
  endfacet
  facet normal -1.23361e-016 0.831469 0.555571
    outer loop
      vertex 24 92.3278 5.30734
      vertex 15 92.7201 4.72014
      vertex 15 92.3278 5.30734
    endloop
  endfacet
  facet normal -1.84623e-016 0.555571 0.831469
    outer loop
      vertex 24 92.7201 4.72014
      vertex 24 93.3073 4.32778
      vertex 15 93.3073 4.32778
    endloop
  endfacet
  facet normal -1.84623e-016 0.555571 0.831469
    outer loop
      vertex 15 92.7201 4.72014
      vertex 24 92.7201 4.72014
      vertex 15 93.3073 4.32778
    endloop
  endfacet
  facet normal -2.17778e-016 0.19509 0.980785
    outer loop
      vertex 24 93.3073 4.32778
      vertex 24 94 4.19
      vertex 15 94 4.19
    endloop
  endfacet
  facet normal -2.17778e-016 0.19509 0.980785
    outer loop
      vertex 15 93.3073 4.32778
      vertex 24 93.3073 4.32778
      vertex 15 94 4.19
    endloop
  endfacet
  facet normal -2.17778e-016 -0.19509 0.980785
    outer loop
      vertex 24 94 4.19
      vertex 24 94.6927 4.32778
      vertex 15 94.6927 4.32778
    endloop
  endfacet
  facet normal -2.17778e-016 -0.19509 0.980785
    outer loop
      vertex 15 94 4.19
      vertex 24 94 4.19
      vertex 15 94.6927 4.32778
    endloop
  endfacet
  facet normal -1.84623e-016 -0.555571 0.831469
    outer loop
      vertex 24 94.6927 4.32778
      vertex 24 95.2799 4.72014
      vertex 15 95.2799 4.72014
    endloop
  endfacet
  facet normal -1.84623e-016 -0.555571 0.831469
    outer loop
      vertex 15 94.6927 4.32778
      vertex 24 94.6927 4.32778
      vertex 15 95.2799 4.72014
    endloop
  endfacet
  facet normal -1.23361e-016 -0.831469 0.555571
    outer loop
      vertex 24 95.2799 4.72014
      vertex 24 95.6722 5.30734
      vertex 15 95.6722 5.30734
    endloop
  endfacet
  facet normal -1.23361e-016 -0.831469 0.555571
    outer loop
      vertex 15 95.2799 4.72014
      vertex 24 95.2799 4.72014
      vertex 15 95.6722 5.30734
    endloop
  endfacet
  facet normal -4.33187e-017 -0.980785 0.19509
    outer loop
      vertex 24 95.6722 5.30734
      vertex 24 95.81 6
      vertex 15 95.81 6
    endloop
  endfacet
  facet normal -4.33187e-017 -0.980785 0.19509
    outer loop
      vertex 15 95.6722 5.30734
      vertex 24 95.6722 5.30734
      vertex 15 95.81 6
    endloop
  endfacet
  facet normal 4.33187e-017 -0.980785 -0.19509
    outer loop
      vertex 15 95.81 6
      vertex 24 95.81 6
      vertex 24 95.6722 6.69266
    endloop
  endfacet
  facet normal 4.33187e-017 -0.980785 -0.19509
    outer loop
      vertex 15 95.6722 6.69266
      vertex 15 95.81 6
      vertex 24 95.6722 6.69266
    endloop
  endfacet
  facet normal 1.23361e-016 -0.831469 -0.555571
    outer loop
      vertex 15 95.6722 6.69266
      vertex 24 95.6722 6.69266
      vertex 24 95.2799 7.27986
    endloop
  endfacet
  facet normal 1.23361e-016 -0.831469 -0.555571
    outer loop
      vertex 15 95.2799 7.27986
      vertex 15 95.6722 6.69266
      vertex 24 95.2799 7.27986
    endloop
  endfacet
  facet normal 1.84623e-016 -0.555571 -0.831469
    outer loop
      vertex 24 95.2799 7.27986
      vertex 24 94.6927 7.67222
      vertex 15 95.2799 7.27986
    endloop
  endfacet
  facet normal 1.84623e-016 -0.555571 -0.831469
    outer loop
      vertex 15 95.2799 7.27986
      vertex 24 94.6927 7.67222
      vertex 15 94.6927 7.67222
    endloop
  endfacet
  facet normal 2.17778e-016 -0.19509 -0.980785
    outer loop
      vertex 24 94.6927 7.67222
      vertex 24 94 7.81
      vertex 15 94.6927 7.67222
    endloop
  endfacet
  facet normal 2.17778e-016 -0.19509 -0.980785
    outer loop
      vertex 15 94.6927 7.67222
      vertex 24 94 7.81
      vertex 15 94 7.81
    endloop
  endfacet
  facet normal 2.17778e-016 0.19509 -0.980785
    outer loop
      vertex 24 94 7.81
      vertex 24 93.3073 7.67222
      vertex 15 94 7.81
    endloop
  endfacet
  facet normal 2.17778e-016 0.19509 -0.980785
    outer loop
      vertex 15 94 7.81
      vertex 24 93.3073 7.67222
      vertex 15 93.3073 7.67222
    endloop
  endfacet
  facet normal 1.84623e-016 0.555571 -0.831469
    outer loop
      vertex 24 93.3073 7.67222
      vertex 24 92.7201 7.27986
      vertex 15 93.3073 7.67222
    endloop
  endfacet
  facet normal 1.84623e-016 0.555571 -0.831469
    outer loop
      vertex 15 93.3073 7.67222
      vertex 24 92.7201 7.27986
      vertex 15 92.7201 7.27986
    endloop
  endfacet
  facet normal 1.23361e-016 0.831469 -0.555571
    outer loop
      vertex 24 92.7201 7.27986
      vertex 24 92.3278 6.69266
      vertex 15 92.7201 7.27986
    endloop
  endfacet
  facet normal 1.23361e-016 0.831469 -0.555571
    outer loop
      vertex 15 92.7201 7.27986
      vertex 24 92.3278 6.69266
      vertex 15 92.3278 6.69266
    endloop
  endfacet
  facet normal -1 0 -1.36718e-016
    outer loop
      vertex 30 95.2799 7.27986
      vertex 30 95.6722 6.69266
      vertex 30 94.6927 7.67222
    endloop
  endfacet
  facet normal -1 0 -1.36718e-016
    outer loop
      vertex 30 94.6927 7.67222
      vertex 30 95.6722 6.69266
      vertex 30 95.81 6
    endloop
  endfacet
  facet normal -1 0 -1.36718e-016
    outer loop
      vertex 30 94.6927 7.67222
      vertex 30 95.81 6
      vertex 30 95.6722 5.30734
    endloop
  endfacet
  facet normal -1 0 -1.36718e-016
    outer loop
      vertex 30 94.6927 7.67222
      vertex 30 95.6722 5.30734
      vertex 30 95.2799 4.72014
    endloop
  endfacet
  facet normal -1 0 -1.36718e-016
    outer loop
      vertex 30 94.6927 7.67222
      vertex 30 95.2799 4.72014
      vertex 30 94.6927 4.32778
    endloop
  endfacet
  facet normal -1 0 -1.36718e-016
    outer loop
      vertex 30 94.6927 7.67222
      vertex 30 94.6927 4.32778
      vertex 30 94 4.19
    endloop
  endfacet
  facet normal -1 0 -1.36718e-016
    outer loop
      vertex 30 94.6927 7.67222
      vertex 30 94 4.19
      vertex 30 93.3073 4.32778
    endloop
  endfacet
  facet normal -1 0 -1.36718e-016
    outer loop
      vertex 30 94.6927 7.67222
      vertex 30 93.3073 4.32778
      vertex 30 92.7201 4.72014
    endloop
  endfacet
  facet normal -1 0 -1.36718e-016
    outer loop
      vertex 30 94.6927 7.67222
      vertex 30 92.7201 4.72014
      vertex 30 92.3278 5.30734
    endloop
  endfacet
  facet normal -1 0 -1.36718e-016
    outer loop
      vertex 30 94.6927 7.67222
      vertex 30 92.3278 5.30734
      vertex 30 92.19 6
    endloop
  endfacet
  facet normal -1 0 -1.36718e-016
    outer loop
      vertex 30 94.6927 7.67222
      vertex 30 92.19 6
      vertex 30 92.3278 6.69266
    endloop
  endfacet
  facet normal -1 0 -1.36718e-016
    outer loop
      vertex 30 94.6927 7.67222
      vertex 30 92.3278 6.69266
      vertex 30 92.7201 7.27986
    endloop
  endfacet
  facet normal -1 0 -1.36718e-016
    outer loop
      vertex 30 94.6927 7.67222
      vertex 30 92.7201 7.27986
      vertex 30 93.3073 7.67222
    endloop
  endfacet
  facet normal -1 0 -1.36718e-016
    outer loop
      vertex 30 94.6927 7.67222
      vertex 30 93.3073 7.67222
      vertex 30 94 7.81
    endloop
  endfacet
endsolid OpenSCAD_Model
